solid battery_cover
facet normal 0.0 0.0 -1.0
outer loop
vertex 15.875 95.25 9.524999999999999
vertex 3.175 3.175 9.524999999999999
vertex 3.175 95.25 9.524999999999999
endloop
endfacet
facet normal 0.0 0.0 -1.0
outer loop
vertex 3.175 3.175 9.524999999999999
vertex 15.875 95.25 9.524999999999999
vertex 15.875 3.175 9.524999999999999
endloop
endfacet
facet normal 0.0 0.0 -1.0
outer loop
vertex 30.22600000000003 95.25 19.049999999999997
vertex 15.875 3.175 19.049999999999997
vertex 15.875 95.25 19.049999999999997
endloop
endfacet
facet normal 0.0 0.0 -1.0
outer loop
vertex 15.875 3.175 19.049999999999997
vertex 30.22600000000003 95.25 19.049999999999997
vertex 30.22600000000003 3.175 19.049999999999997
endloop
endfacet
facet normal 0.0 0.0 1.0
outer loop
vertex 73.15199999999997 0.0 22.224999999999998
vertex 58.80100000000003 42.8625 22.224999999999998
vertex 58.80100000000003 0.0 22.224999999999998
endloop
endfacet
facet normal 0.0 0.0 1.0
outer loop
vertex 58.80100000000003 42.8625 22.224999999999998
vertex 73.15199999999997 0.0 22.224999999999998
vertex 58.80100000000003 55.5625 22.224999999999998
endloop
endfacet
facet normal 0.0 0.0 1.0
outer loop
vertex 58.80100000000003 55.5625 22.224999999999998
vertex 73.15199999999997 0.0 22.224999999999998
vertex 58.80100000000003 98.425 22.224999999999998
endloop
endfacet
facet normal 0.0 0.0 1.0
outer loop
vertex 58.80100000000003 98.425 22.224999999999998
vertex 73.15199999999997 0.0 22.224999999999998
vertex 73.15199999999997 98.425 22.224999999999998
endloop
endfacet
facet normal 0.0 0.0 1.0
outer loop
vertex 58.80100000000003 42.8625 22.224999999999998
vertex 55.626000000000026 55.5625 22.224999999999998
vertex 55.626000000000026 42.8625 22.224999999999998
endloop
endfacet
facet normal 0.0 0.0 1.0
outer loop
vertex 55.626000000000026 55.5625 22.224999999999998
vertex 58.80100000000003 42.8625 22.224999999999998
vertex 58.80100000000003 55.5625 22.224999999999998
endloop
endfacet
facet normal 0.0 0.0 -1.0
outer loop
vertex 82.67699999999996 95.25 9.524999999999999
vertex 69.97699999999998 3.175 9.524999999999999
vertex 69.97699999999998 95.25 9.524999999999999
endloop
endfacet
facet normal 0.0 0.0 -1.0
outer loop
vertex 69.97699999999998 3.175 9.524999999999999
vertex 82.67699999999996 95.25 9.524999999999999
vertex 82.67699999999996 3.175 9.524999999999999
endloop
endfacet
facet normal -0.9659258262890663 -0.25881904510252873 0.0
outer loop
vertex 36.79237100306446 49.15649906359899 60.324999999999996
vertex 37.42673868596888 47.625 57.15
vertex 37.42673868596888 47.625 60.324999999999996
endloop
endfacet
facet normal -0.866025403784444 -0.4999999999999909 0.0
outer loop
vertex 37.42673868596888 47.625 57.15
vertex 36.79237100306446 49.15649906359899 60.324999999999996
vertex 36.79237100306446 49.15649906359899 57.15
endloop
endfacet
facet normal 0.0 1.0 0.0
outer loop
vertex 30.22600000000003 3.175 39.95987193946541
vertex 55.626000000000026 3.175 19.049999999999997
vertex 30.22600000000003 3.175 19.049999999999997
endloop
endfacet
facet normal 0.0 1.0 0.0
outer loop
vertex 55.626000000000026 3.175 19.049999999999997
vertex 30.22600000000003 3.175 39.95987193946541
vertex 55.626000000000026 3.175 39.95987193946541
endloop
endfacet
facet normal 0.0 1.0 0.0
outer loop
vertex 15.875 3.175 19.049999999999997
vertex 69.97699999999998 3.175 9.524999999999999
vertex 15.875 3.175 9.524999999999999
endloop
endfacet
facet normal 0.0 1.0 0.0
outer loop
vertex 69.97699999999998 3.175 9.524999999999999
vertex 15.875 3.175 19.049999999999997
vertex 69.97699999999998 3.175 19.049999999999997
endloop
endfacet
facet normal 0.0 1.0 0.0
outer loop
vertex 69.97699999999998 3.175 19.049999999999997
vertex 15.875 3.175 19.049999999999997
vertex 30.22600000000003 3.175 19.049999999999997
endloop
endfacet
facet normal 0.0 1.0 0.0
outer loop
vertex 69.97699999999998 3.175 19.049999999999997
vertex 30.22600000000003 3.175 19.049999999999997
vertex 55.626000000000026 3.175 19.049999999999997
endloop
endfacet
facet normal 0.0 1.0 0.0
outer loop
vertex 3.175 3.175 9.524999999999999
vertex 82.67699999999996 3.175 0.0
vertex 3.175 3.175 0.0
endloop
endfacet
facet normal 0.0 1.0 0.0
outer loop
vertex 82.67699999999996 3.175 0.0
vertex 3.175 3.175 9.524999999999999
vertex 82.67699999999996 3.175 9.524999999999999
endloop
endfacet
facet normal 0.0 1.0 0.0
outer loop
vertex 82.67699999999996 3.175 9.524999999999999
vertex 3.175 3.175 9.524999999999999
vertex 15.875 3.175 9.524999999999999
endloop
endfacet
facet normal 0.0 1.0 0.0
outer loop
vertex 82.67699999999996 3.175 9.524999999999999
vertex 15.875 3.175 9.524999999999999
vertex 69.97699999999998 3.175 9.524999999999999
endloop
endfacet
facet normal -1.0 0.0 0.0
outer loop
vertex 69.97699999999998 95.25 19.049999999999997
vertex 69.97699999999998 3.175 9.524999999999999
vertex 69.97699999999998 3.175 19.049999999999997
endloop
endfacet
facet normal -1.0 0.0 0.0
outer loop
vertex 69.97699999999998 3.175 9.524999999999999
vertex 69.97699999999998 95.25 19.049999999999997
vertex 69.97699999999998 95.25 9.524999999999999
endloop
endfacet
facet normal -1.0 0.0 0.0
outer loop
vertex 0.0 98.425 9.524999999999999
vertex 0.0 0.0 0.0
vertex 0.0 0.0 9.524999999999999
endloop
endfacet
facet normal -1.0 0.0 0.0
outer loop
vertex 0.0 0.0 0.0
vertex 0.0 98.425 9.524999999999999
vertex 0.0 98.425 0.0
endloop
endfacet
facet normal 1.0 0.0 0.0
outer loop
vertex 15.875 95.25 9.524999999999999
vertex 15.875 3.175 19.049999999999997
vertex 15.875 3.175 9.524999999999999
endloop
endfacet
facet normal 1.0 0.0 0.0
outer loop
vertex 15.875 3.175 19.049999999999997
vertex 15.875 95.25 9.524999999999999
vertex 15.875 95.25 19.049999999999997
endloop
endfacet
facet normal 0.0 1.0 0.0
outer loop
vertex 42.92600000000003 57.15 60.324999999999996
vertex 44.56950093640108 56.93362899693559 57.15
vertex 42.92600000000003 57.15 57.15
endloop
endfacet
facet normal 0.25881904510252557 0.9659258262890672 0.0
outer loop
vertex 44.56950093640108 56.93362899693559 57.15
vertex 42.92600000000003 57.15 60.324999999999996
vertex 44.56950093640108 56.93362899693559 60.324999999999996
endloop
endfacet
facet normal 1.0 0.0 0.0
outer loop
vertex 85.85199999999998 98.425 0.0
vertex 85.85199999999998 0.0 9.524999999999999
vertex 85.85199999999998 0.0 0.0
endloop
endfacet
facet normal 1.0 0.0 0.0
outer loop
vertex 85.85199999999998 0.0 9.524999999999999
vertex 85.85199999999998 98.425 0.0
vertex 85.85199999999998 98.425 9.524999999999999
endloop
endfacet
facet normal -0.25881904510252557 -0.9659258262890672 0.0
outer loop
vertex 41.28249906359898 44.666371003064405 60.324999999999996
vertex 39.75100000000003 45.30073868596882 57.15
vertex 41.28249906359898 44.666371003064405 57.15
endloop
endfacet
facet normal -0.5000000000000022 -0.8660254037844374 0.0
outer loop
vertex 39.75100000000003 45.30073868596882 57.15
vertex 41.28249906359898 44.666371003064405 60.324999999999996
vertex 39.75100000000003 45.30073868596882 60.324999999999996
endloop
endfacet
facet normal 0.25881904510252557 0.9659258262890672 0.0
outer loop
vertex 44.56950093640108 56.93362899693559 60.324999999999996
vertex 46.10100000000003 56.29926131403118 57.15
vertex 44.56950093640108 56.93362899693559 57.15
endloop
endfacet
facet normal 0.5000000000000022 0.8660254037844374 0.0
outer loop
vertex 46.10100000000003 56.29926131403118 57.15
vertex 44.56950093640108 56.93362899693559 60.324999999999996
vertex 46.10100000000003 56.29926131403118 60.324999999999996
endloop
endfacet
facet normal -1.0 0.0 0.0
outer loop
vertex 55.626000000000026 20.365128060534577 57.15
vertex 55.626000000000026 43.078871003064414 27.043500936401
vertex 55.626000000000026 42.8625 25.4
endloop
endfacet
facet normal -1.0 0.0 0.0
outer loop
vertex 55.626000000000026 43.078871003064414 27.043500936401
vertex 55.626000000000026 20.365128060534577 57.15
vertex 55.626000000000026 43.71323868596881 28.575
endloop
endfacet
facet normal -1.0 0.0 0.0
outer loop
vertex 55.626000000000026 43.71323868596881 28.575
vertex 55.626000000000026 20.365128060534577 57.15
vertex 55.626000000000026 44.72237193946542 29.890128060534565
endloop
endfacet
facet normal -1.0 0.0 0.0
outer loop
vertex 55.626000000000026 44.72237193946542 29.890128060534565
vertex 55.626000000000026 20.365128060534577 57.15
vertex 55.626000000000026 46.037499999999994 30.899261314031175
endloop
endfacet
facet normal -1.0 0.0 0.0
outer loop
vertex 55.626000000000026 46.037499999999994 30.899261314031175
vertex 55.626000000000026 20.365128060534577 57.15
vertex 55.626000000000026 95.25 57.15
endloop
endfacet
facet normal -1.0 0.0 0.0
outer loop
vertex 55.626000000000026 46.037499999999994 30.899261314031175
vertex 55.626000000000026 95.25 57.15
vertex 55.626000000000026 47.56899906359899 31.53362899693559
endloop
endfacet
facet normal -1.0 0.0 0.0
outer loop
vertex 55.626000000000026 47.56899906359899 31.53362899693559
vertex 55.626000000000026 95.25 57.15
vertex 55.626000000000026 49.2125 31.75
endloop
endfacet
facet normal -1.0 0.0 0.0
outer loop
vertex 55.626000000000026 49.2125 31.75
vertex 55.626000000000026 95.25 57.15
vertex 55.626000000000026 50.856000936400996 31.53362899693559
endloop
endfacet
facet normal -1.0 0.0 0.0
outer loop
vertex 55.626000000000026 50.856000936400996 31.53362899693559
vertex 55.626000000000026 95.25 57.15
vertex 55.626000000000026 52.387499999999996 30.899261314031175
endloop
endfacet
facet normal -1.0 0.0 0.0
outer loop
vertex 55.626000000000026 52.387499999999996 30.899261314031175
vertex 55.626000000000026 95.25 57.15
vertex 55.626000000000026 53.70262806053458 29.890128060534565
endloop
endfacet
facet normal -1.0 0.0 0.0
outer loop
vertex 55.626000000000026 53.70262806053458 29.890128060534565
vertex 55.626000000000026 95.25 57.15
vertex 55.626000000000026 54.711761314031186 28.575
endloop
endfacet
facet normal -1.0 0.0 0.0
outer loop
vertex 55.626000000000026 54.711761314031186 28.575
vertex 55.626000000000026 95.25 57.15
vertex 55.626000000000026 55.346128996935576 27.043500936401
endloop
endfacet
facet normal -1.0 0.0 0.0
outer loop
vertex 55.626000000000026 55.346128996935576 27.043500936401
vertex 55.626000000000026 95.25 57.15
vertex 55.626000000000026 55.5625 25.4
endloop
endfacet
facet normal -1.0 0.0 0.0
outer loop
vertex 55.626000000000026 55.5625 25.4
vertex 55.626000000000026 95.25 57.15
vertex 55.626000000000026 55.5625 22.224999999999998
endloop
endfacet
facet normal -1.0 0.0 0.0
outer loop
vertex 55.626000000000026 20.365128060534577 57.15
vertex 55.626000000000026 3.175 19.049999999999997
vertex 55.626000000000026 3.175 39.95987193946541
endloop
endfacet
facet normal -1.0 0.0 0.0
outer loop
vertex 55.626000000000026 3.175 19.049999999999997
vertex 55.626000000000026 20.365128060534577 57.15
vertex 55.626000000000026 42.8625 22.224999999999998
endloop
endfacet
facet normal -1.0 0.0 0.0
outer loop
vertex 55.626000000000026 3.175 19.049999999999997
vertex 55.626000000000026 42.8625 22.224999999999998
vertex 55.626000000000026 95.25 19.049999999999997
endloop
endfacet
facet normal -1.0 0.0 0.0
outer loop
vertex 55.626000000000026 42.8625 22.224999999999998
vertex 55.626000000000026 20.365128060534577 57.15
vertex 55.626000000000026 42.8625 25.4
endloop
endfacet
facet normal -1.0 0.0 0.0
outer loop
vertex 55.626000000000026 95.25 19.049999999999997
vertex 55.626000000000026 42.8625 22.224999999999998
vertex 55.626000000000026 55.5625 22.224999999999998
endloop
endfacet
facet normal -1.0 0.0 0.0
outer loop
vertex 55.626000000000026 95.25 19.049999999999997
vertex 55.626000000000026 55.5625 22.224999999999998
vertex 55.626000000000026 95.25 57.15
endloop
endfacet
facet normal 0.0 0.0 1.0
outer loop
vertex 30.22600000000003 42.8625 22.224999999999998
vertex 27.05100000000003 55.5625 22.224999999999998
vertex 27.05100000000003 42.8625 22.224999999999998
endloop
endfacet
facet normal 0.0 0.0 1.0
outer loop
vertex 27.05100000000003 55.5625 22.224999999999998
vertex 30.22600000000003 42.8625 22.224999999999998
vertex 30.22600000000003 55.5625 22.224999999999998
endloop
endfacet
facet normal 0.0 0.0 1.0
outer loop
vertex 27.05100000000003 0.0 22.224999999999998
vertex 12.7 98.425 22.224999999999998
vertex 12.7 0.0 22.224999999999998
endloop
endfacet
facet normal 0.0 0.0 1.0
outer loop
vertex 12.7 98.425 22.224999999999998
vertex 27.05100000000003 0.0 22.224999999999998
vertex 27.05100000000003 98.425 22.224999999999998
endloop
endfacet
facet normal 0.0 0.0 1.0
outer loop
vertex 27.05100000000003 98.425 22.224999999999998
vertex 27.05100000000003 0.0 22.224999999999998
vertex 27.05100000000003 42.8625 22.224999999999998
endloop
endfacet
facet normal 0.0 0.0 1.0
outer loop
vertex 27.05100000000003 98.425 22.224999999999998
vertex 27.05100000000003 42.8625 22.224999999999998
vertex 27.05100000000003 55.5625 22.224999999999998
endloop
endfacet
facet normal 0.0 0.0 -1.0
outer loop
vertex 69.97699999999998 95.25 19.049999999999997
vertex 55.626000000000026 3.175 19.049999999999997
vertex 55.626000000000026 95.25 19.049999999999997
endloop
endfacet
facet normal 0.0 0.0 -1.0
outer loop
vertex 55.626000000000026 3.175 19.049999999999997
vertex 69.97699999999998 95.25 19.049999999999997
vertex 69.97699999999998 3.175 19.049999999999997
endloop
endfacet
facet normal -1.0 0.0 0.0
outer loop
vertex 82.67699999999996 95.25 9.524999999999999
vertex 82.67699999999996 3.175 0.0
vertex 82.67699999999996 3.175 9.524999999999999
endloop
endfacet
facet normal -1.0 0.0 0.0
outer loop
vertex 82.67699999999996 3.175 0.0
vertex 82.67699999999996 95.25 9.524999999999999
vertex 82.67699999999996 95.25 0.0
endloop
endfacet
facet normal 1.0 0.0 0.0
outer loop
vertex 3.175 95.25 0.0
vertex 3.175 3.175 9.524999999999999
vertex 3.175 3.175 0.0
endloop
endfacet
facet normal 1.0 0.0 0.0
outer loop
vertex 3.175 3.175 9.524999999999999
vertex 3.175 95.25 0.0
vertex 3.175 95.25 9.524999999999999
endloop
endfacet
facet normal 0.0 0.0 -1.0
outer loop
vertex 0.0 98.425 0.0
vertex 3.175 95.25 0.0
vertex 0.0 0.0 0.0
endloop
endfacet
facet normal 0.0 0.0 -1.0
outer loop
vertex 3.175 95.25 0.0
vertex 0.0 98.425 0.0
vertex 85.85199999999998 98.425 0.0
endloop
endfacet
facet normal 0.0 0.0 -1.0
outer loop
vertex 3.175 95.25 0.0
vertex 85.85199999999998 98.425 0.0
vertex 82.67699999999996 95.25 0.0
endloop
endfacet
facet normal 0.0 0.0 -1.0
outer loop
vertex 82.67699999999996 95.25 0.0
vertex 85.85199999999998 98.425 0.0
vertex 82.67699999999996 3.175 0.0
endloop
endfacet
facet normal 0.0 0.0 -1.0
outer loop
vertex 0.0 0.0 0.0
vertex 3.175 3.175 0.0
vertex 85.85199999999998 0.0 0.0
endloop
endfacet
facet normal 0.0 0.0 -1.0
outer loop
vertex 3.175 3.175 0.0
vertex 0.0 0.0 0.0
vertex 3.175 95.25 0.0
endloop
endfacet
facet normal 0.0 0.0 -1.0
outer loop
vertex 85.85199999999998 0.0 0.0
vertex 3.175 3.175 0.0
vertex 82.67699999999996 3.175 0.0
endloop
endfacet
facet normal 0.0 0.0 -1.0
outer loop
vertex 85.85199999999998 0.0 0.0
vertex 82.67699999999996 3.175 0.0
vertex 85.85199999999998 98.425 0.0
endloop
endfacet
facet normal 0.9659258262890663 -0.25881904510252873 0.0
outer loop
vertex 49.0596289969356 49.15649906359899 57.15
vertex 48.42526131403118 47.625 60.324999999999996
vertex 48.42526131403118 47.625 57.15
endloop
endfacet
facet normal 0.866025403784444 -0.4999999999999909 0.0
outer loop
vertex 48.42526131403118 47.625 60.324999999999996
vertex 49.0596289969356 49.15649906359899 57.15
vertex 49.0596289969356 49.15649906359899 60.324999999999996
endloop
endfacet
facet normal 0.5000000000000022 -0.8660254037844374 0.0
outer loop
vertex 46.10100000000003 45.30073868596882 60.324999999999996
vertex 44.56950093640108 44.666371003064405 57.15
vertex 46.10100000000003 45.30073868596882 57.15
endloop
endfacet
facet normal 0.25881904510252557 -0.9659258262890672 0.0
outer loop
vertex 44.56950093640108 44.666371003064405 57.15
vertex 46.10100000000003 45.30073868596882 60.324999999999996
vertex 44.56950093640108 44.666371003064405 60.324999999999996
endloop
endfacet
facet normal 1.0 -6.409886604349884e-16 1.5781359645675525e-15
outer loop
vertex 58.80100000000003 98.425 22.224999999999998
vertex 58.80100000000003 55.5625 25.4
vertex 58.80100000000003 55.5625 22.224999999999998
endloop
endfacet
facet normal 1.0 -6.409886604349884e-16 1.5781359645675525e-15
outer loop
vertex 58.80100000000003 42.8625 22.224999999999998
vertex 58.80099999999994 0.0 41.275
vertex 58.80100000000003 0.0 22.224999999999998
endloop
endfacet
facet normal 1.0 -6.409886604349884e-16 1.5781359645675525e-15
outer loop
vertex 58.80099999999994 0.0 41.275
vertex 58.80100000000003 42.8625 22.224999999999998
vertex 58.80099999999994 19.049999999999997 60.324999999999996
endloop
endfacet
facet normal 1.0 -6.409886604349884e-16 1.5781359645675525e-15
outer loop
vertex 58.80099999999994 19.049999999999997 60.324999999999996
vertex 58.80100000000003 42.8625 22.224999999999998
vertex 58.80100000000003 42.8625 25.4
endloop
endfacet
facet normal 1.0 -6.409886604349884e-16 1.5781359645675525e-15
outer loop
vertex 58.80099999999994 19.049999999999997 60.324999999999996
vertex 58.80100000000003 42.8625 25.4
vertex 58.80100000000003 43.078871003064414 27.043500936401
endloop
endfacet
facet normal 1.0 -6.409886604349884e-16 1.5781359645675525e-15
outer loop
vertex 58.80099999999994 19.049999999999997 60.324999999999996
vertex 58.80100000000003 43.078871003064414 27.043500936401
vertex 58.80100000000003 43.71323868596881 28.575
endloop
endfacet
facet normal 1.0 -6.409886604349884e-16 1.5781359645675525e-15
outer loop
vertex 58.80099999999994 19.049999999999997 60.324999999999996
vertex 58.80100000000003 43.71323868596881 28.575
vertex 58.80100000000003 44.72237193946542 29.890128060534565
endloop
endfacet
facet normal 1.0 -6.409886604349884e-16 1.5781359645675525e-15
outer loop
vertex 58.80099999999994 19.049999999999997 60.324999999999996
vertex 58.80100000000003 44.72237193946542 29.890128060534565
vertex 58.80100000000003 46.037499999999994 30.899261314031175
endloop
endfacet
facet normal 1.0 -6.409886604349884e-16 1.5781359645675525e-15
outer loop
vertex 58.80099999999994 19.049999999999997 60.324999999999996
vertex 58.80100000000003 46.037499999999994 30.899261314031175
vertex 58.80100000000003 98.425 60.324999999999996
endloop
endfacet
facet normal 1.0 -6.409886604349884e-16 1.5781359645675525e-15
outer loop
vertex 58.80100000000003 98.425 60.324999999999996
vertex 58.80100000000003 46.037499999999994 30.899261314031175
vertex 58.80100000000003 47.56899906359899 31.53362899693559
endloop
endfacet
facet normal 1.0 -6.409886604349884e-16 1.5781359645675525e-15
outer loop
vertex 58.80100000000003 98.425 60.324999999999996
vertex 58.80100000000003 47.56899906359899 31.53362899693559
vertex 58.80100000000003 49.2125 31.75
endloop
endfacet
facet normal 1.0 -6.409886604349884e-16 1.5781359645675525e-15
outer loop
vertex 58.80100000000003 98.425 60.324999999999996
vertex 58.80100000000003 49.2125 31.75
vertex 58.80100000000003 50.856000936400996 31.53362899693559
endloop
endfacet
facet normal 1.0 -6.409886604349884e-16 1.5781359645675525e-15
outer loop
vertex 58.80100000000003 98.425 60.324999999999996
vertex 58.80100000000003 50.856000936400996 31.53362899693559
vertex 58.80100000000003 52.387499999999996 30.899261314031175
endloop
endfacet
facet normal 1.0 -6.409886604349884e-16 1.5781359645675525e-15
outer loop
vertex 58.80100000000003 98.425 60.324999999999996
vertex 58.80100000000003 52.387499999999996 30.899261314031175
vertex 58.80100000000003 53.70262806053458 29.890128060534565
endloop
endfacet
facet normal 1.0 -6.409886604349884e-16 1.5781359645675525e-15
outer loop
vertex 58.80100000000003 98.425 60.324999999999996
vertex 58.80100000000003 53.70262806053458 29.890128060534565
vertex 58.80100000000003 54.711761314031186 28.575
endloop
endfacet
facet normal 1.0 -6.409886604349884e-16 1.5781359645675525e-15
outer loop
vertex 58.80100000000003 98.425 60.324999999999996
vertex 58.80100000000003 54.711761314031186 28.575
vertex 58.80100000000003 55.346128996935576 27.043500936401
endloop
endfacet
facet normal 1.0 -6.409886604349884e-16 1.5781359645675525e-15
outer loop
vertex 58.80100000000003 98.425 60.324999999999996
vertex 58.80100000000003 55.346128996935576 27.043500936401
vertex 58.80100000000003 55.5625 25.4
endloop
endfacet
facet normal 1.0 -6.409886604349884e-16 1.5781359645675525e-15
outer loop
vertex 58.80100000000003 98.425 60.324999999999996
vertex 58.80100000000003 55.5625 25.4
vertex 58.80100000000003 98.425 22.224999999999998
endloop
endfacet
facet normal 1.0 0.0 0.0
outer loop
vertex 30.22600000000003 3.175 19.049999999999997
vertex 30.22600000000003 42.8625 22.224999999999998
vertex 30.22600000000003 3.175 39.95987193946541
endloop
endfacet
facet normal 1.0 0.0 0.0
outer loop
vertex 30.22600000000003 42.8625 22.224999999999998
vertex 30.22600000000003 3.175 19.049999999999997
vertex 30.22600000000003 95.25 19.049999999999997
endloop
endfacet
facet normal 1.0 0.0 0.0
outer loop
vertex 30.22600000000003 3.175 39.95987193946541
vertex 30.22600000000003 42.8625 22.224999999999998
vertex 30.22600000000003 20.365128060534577 57.15
endloop
endfacet
facet normal 1.0 0.0 0.0
outer loop
vertex 30.22600000000003 42.8625 22.224999999999998
vertex 30.22600000000003 95.25 19.049999999999997
vertex 30.22600000000003 55.5625 22.224999999999998
endloop
endfacet
facet normal 1.0 0.0 0.0
outer loop
vertex 30.22600000000003 55.5625 22.224999999999998
vertex 30.22600000000003 95.25 19.049999999999997
vertex 30.22600000000003 55.5625 25.4
endloop
endfacet
facet normal 1.0 0.0 0.0
outer loop
vertex 30.22600000000003 20.365128060534577 57.15
vertex 30.22600000000003 46.037499999999994 30.899261314031175
vertex 30.22600000000003 95.25 57.15
endloop
endfacet
facet normal 1.0 0.0 0.0
outer loop
vertex 30.22600000000003 46.037499999999994 30.899261314031175
vertex 30.22600000000003 20.365128060534577 57.15
vertex 30.22600000000003 44.72237193946542 29.890128060534565
endloop
endfacet
facet normal 1.0 0.0 0.0
outer loop
vertex 30.22600000000003 44.72237193946542 29.890128060534565
vertex 30.22600000000003 20.365128060534577 57.15
vertex 30.22600000000003 43.71323868596881 28.575
endloop
endfacet
facet normal 1.0 0.0 0.0
outer loop
vertex 30.22600000000003 43.71323868596881 28.575
vertex 30.22600000000003 20.365128060534577 57.15
vertex 30.22600000000003 43.078871003064414 27.043500936401
endloop
endfacet
facet normal 1.0 0.0 0.0
outer loop
vertex 30.22600000000003 43.078871003064414 27.043500936401
vertex 30.22600000000003 20.365128060534577 57.15
vertex 30.22600000000003 42.8625 25.4
endloop
endfacet
facet normal 1.0 0.0 0.0
outer loop
vertex 30.22600000000003 42.8625 25.4
vertex 30.22600000000003 20.365128060534577 57.15
vertex 30.22600000000003 42.8625 22.224999999999998
endloop
endfacet
facet normal 1.0 0.0 0.0
outer loop
vertex 30.22600000000003 95.25 57.15
vertex 30.22600000000003 46.037499999999994 30.899261314031175
vertex 30.22600000000003 47.568999063598994 31.53362899693559
endloop
endfacet
facet normal 1.0 0.0 0.0
outer loop
vertex 30.22600000000003 95.25 57.15
vertex 30.22600000000003 47.568999063598994 31.53362899693559
vertex 30.22600000000003 49.2125 31.75
endloop
endfacet
facet normal 1.0 0.0 0.0
outer loop
vertex 30.22600000000003 95.25 57.15
vertex 30.22600000000003 49.2125 31.75
vertex 30.22600000000003 50.85600093640101 31.53362899693559
endloop
endfacet
facet normal 1.0 0.0 0.0
outer loop
vertex 30.22600000000003 95.25 57.15
vertex 30.22600000000003 50.85600093640101 31.53362899693559
vertex 30.22600000000003 52.387499999999996 30.899261314031175
endloop
endfacet
facet normal 1.0 0.0 0.0
outer loop
vertex 30.22600000000003 95.25 57.15
vertex 30.22600000000003 52.387499999999996 30.899261314031175
vertex 30.22600000000003 53.70262806053458 29.890128060534565
endloop
endfacet
facet normal 1.0 0.0 0.0
outer loop
vertex 30.22600000000003 95.25 57.15
vertex 30.22600000000003 53.70262806053458 29.890128060534565
vertex 30.22600000000003 54.711761314031186 28.575
endloop
endfacet
facet normal 1.0 0.0 0.0
outer loop
vertex 30.22600000000003 95.25 57.15
vertex 30.22600000000003 54.711761314031186 28.575
vertex 30.22600000000003 55.346128996935576 27.043500936401
endloop
endfacet
facet normal 1.0 0.0 0.0
outer loop
vertex 30.22600000000003 95.25 57.15
vertex 30.22600000000003 55.346128996935576 27.043500936401
vertex 30.22600000000003 55.5625 25.4
endloop
endfacet
facet normal 1.0 0.0 0.0
outer loop
vertex 30.22600000000003 95.25 57.15
vertex 30.22600000000003 55.5625 25.4
vertex 30.22600000000003 95.25 19.049999999999997
endloop
endfacet
facet normal -0.7071067811865531 0.707106781186542 0.0
outer loop
vertex 38.435871939465414 55.29012806053456 60.324999999999996
vertex 39.75100000000003 56.29926131403118 57.15
vertex 38.435871939465414 55.29012806053456 57.15
endloop
endfacet
facet normal -0.5000000000000022 0.8660254037844374 0.0
outer loop
vertex 39.75100000000003 56.29926131403118 57.15
vertex 38.435871939465414 55.29012806053456 60.324999999999996
vertex 39.75100000000003 56.29926131403118 60.324999999999996
endloop
endfacet
facet normal -1.7849884655831649e-31 -0.7071067811865475 0.7071067811865476
outer loop
vertex 58.80099999999994 0.0 41.275
vertex 27.05100000000003 19.049999999999997 60.324999999999996
vertex 27.05100000000003 0.0 41.275
endloop
endfacet
facet normal -1.7849884655831649e-31 -0.7071067811865475 0.7071067811865476
outer loop
vertex 27.05100000000003 19.049999999999997 60.324999999999996
vertex 58.80099999999994 0.0 41.275
vertex 58.80099999999994 19.049999999999997 60.324999999999996
endloop
endfacet
facet normal -0.5000000000000022 0.8660254037844374 0.0
outer loop
vertex 39.75100000000003 56.29926131403118 60.324999999999996
vertex 41.28249906359898 56.93362899693559 57.15
vertex 39.75100000000003 56.29926131403118 57.15
endloop
endfacet
facet normal -0.25881904510252557 0.9659258262890672 0.0
outer loop
vertex 41.28249906359898 56.93362899693559 57.15
vertex 39.75100000000003 56.29926131403118 60.324999999999996
vertex 41.28249906359898 56.93362899693559 60.324999999999996
endloop
endfacet
facet normal 0.7071067811865531 0.707106781186542 0.0
outer loop
vertex 47.416128060534646 55.29012806053456 57.15
vertex 48.42526131403118 53.974999999999994 60.324999999999996
vertex 48.42526131403118 53.974999999999994 57.15
endloop
endfacet
facet normal 0.866025403784444 0.4999999999999909 0.0
outer loop
vertex 48.42526131403118 53.974999999999994 60.324999999999996
vertex 47.416128060534646 55.29012806053456 57.15
vertex 47.416128060534646 55.29012806053456 60.324999999999996
endloop
endfacet
facet normal 0.866025403784444 -0.4999999999999909 0.0
outer loop
vertex 48.42526131403118 47.625 57.15
vertex 47.416128060534646 46.30987193946543 60.324999999999996
vertex 47.416128060534646 46.30987193946543 57.15
endloop
endfacet
facet normal 0.7071067811865531 -0.707106781186542 0.0
outer loop
vertex 47.416128060534646 46.30987193946543 60.324999999999996
vertex 48.42526131403118 47.625 57.15
vertex 48.42526131403118 47.625 60.324999999999996
endloop
endfacet
facet normal -1.0 0.0 0.0
outer loop
vertex 27.05100000000003 19.049999999999997 60.324999999999996
vertex 27.05100000000003 43.078871003064414 27.043500936401
vertex 27.05100000000003 42.8625 25.4
endloop
endfacet
facet normal -1.0 0.0 0.0
outer loop
vertex 27.05100000000003 43.078871003064414 27.043500936401
vertex 27.05100000000003 19.049999999999997 60.324999999999996
vertex 27.05100000000003 43.71323868596881 28.575
endloop
endfacet
facet normal -1.0 0.0 0.0
outer loop
vertex 27.05100000000003 43.71323868596881 28.575
vertex 27.05100000000003 19.049999999999997 60.324999999999996
vertex 27.05100000000003 44.72237193946542 29.890128060534565
endloop
endfacet
facet normal -1.0 0.0 0.0
outer loop
vertex 27.05100000000003 44.72237193946542 29.890128060534565
vertex 27.05100000000003 19.049999999999997 60.324999999999996
vertex 27.05100000000003 46.037499999999994 30.899261314031175
endloop
endfacet
facet normal -1.0 0.0 0.0
outer loop
vertex 27.05100000000003 46.037499999999994 30.899261314031175
vertex 27.05100000000003 19.049999999999997 60.324999999999996
vertex 27.05100000000003 98.425 60.324999999999996
endloop
endfacet
facet normal -1.0 0.0 0.0
outer loop
vertex 27.05100000000003 46.037499999999994 30.899261314031175
vertex 27.05100000000003 98.425 60.324999999999996
vertex 27.05100000000003 47.568999063598994 31.53362899693559
endloop
endfacet
facet normal -1.0 0.0 0.0
outer loop
vertex 27.05100000000003 47.568999063598994 31.53362899693559
vertex 27.05100000000003 98.425 60.324999999999996
vertex 27.05100000000003 49.2125 31.75
endloop
endfacet
facet normal -1.0 0.0 0.0
outer loop
vertex 27.05100000000003 49.2125 31.75
vertex 27.05100000000003 98.425 60.324999999999996
vertex 27.05100000000003 50.85600093640101 31.53362899693559
endloop
endfacet
facet normal -1.0 0.0 0.0
outer loop
vertex 27.05100000000003 50.85600093640101 31.53362899693559
vertex 27.05100000000003 98.425 60.324999999999996
vertex 27.05100000000003 52.387499999999996 30.899261314031175
endloop
endfacet
facet normal -1.0 0.0 0.0
outer loop
vertex 27.05100000000003 52.387499999999996 30.899261314031175
vertex 27.05100000000003 98.425 60.324999999999996
vertex 27.05100000000003 53.70262806053458 29.890128060534565
endloop
endfacet
facet normal -1.0 0.0 0.0
outer loop
vertex 27.05100000000003 53.70262806053458 29.890128060534565
vertex 27.05100000000003 98.425 60.324999999999996
vertex 27.05100000000003 54.711761314031186 28.575
endloop
endfacet
facet normal -1.0 0.0 0.0
outer loop
vertex 27.05100000000003 54.711761314031186 28.575
vertex 27.05100000000003 98.425 60.324999999999996
vertex 27.05100000000003 55.346128996935576 27.043500936401
endloop
endfacet
facet normal -1.0 0.0 0.0
outer loop
vertex 27.05100000000003 55.346128996935576 27.043500936401
vertex 27.05100000000003 98.425 60.324999999999996
vertex 27.05100000000003 55.5625 25.4
endloop
endfacet
facet normal -1.0 0.0 0.0
outer loop
vertex 27.05100000000003 55.5625 25.4
vertex 27.05100000000003 98.425 60.324999999999996
vertex 27.05100000000003 55.5625 22.224999999999998
endloop
endfacet
facet normal -1.0 0.0 0.0
outer loop
vertex 27.05100000000003 55.5625 22.224999999999998
vertex 27.05100000000003 98.425 60.324999999999996
vertex 27.05100000000003 98.425 22.224999999999998
endloop
endfacet
facet normal -1.0 0.0 0.0
outer loop
vertex 27.05100000000003 19.049999999999997 60.324999999999996
vertex 27.05100000000003 0.0 22.224999999999998
vertex 27.05100000000003 0.0 41.275
endloop
endfacet
facet normal -1.0 0.0 0.0
outer loop
vertex 27.05100000000003 0.0 22.224999999999998
vertex 27.05100000000003 19.049999999999997 60.324999999999996
vertex 27.05100000000003 42.8625 22.224999999999998
endloop
endfacet
facet normal -1.0 0.0 0.0
outer loop
vertex 27.05100000000003 42.8625 22.224999999999998
vertex 27.05100000000003 19.049999999999997 60.324999999999996
vertex 27.05100000000003 42.8625 25.4
endloop
endfacet
facet normal 0.5000000000000022 0.8660254037844374 0.0
outer loop
vertex 46.10100000000003 56.29926131403118 60.324999999999996
vertex 47.416128060534646 55.29012806053456 57.15
vertex 46.10100000000003 56.29926131403118 57.15
endloop
endfacet
facet normal 0.7071067811865531 0.707106781186542 0.0
outer loop
vertex 47.416128060534646 55.29012806053456 57.15
vertex 46.10100000000003 56.29926131403118 60.324999999999996
vertex 47.416128060534646 55.29012806053456 60.324999999999996
endloop
endfacet
facet normal 0.7071067811865531 -0.707106781186542 0.0
outer loop
vertex 47.416128060534646 46.30987193946543 60.324999999999996
vertex 46.10100000000003 45.30073868596882 57.15
vertex 47.416128060534646 46.30987193946543 57.15
endloop
endfacet
facet normal 0.5000000000000022 -0.8660254037844374 0.0
outer loop
vertex 46.10100000000003 45.30073868596882 57.15
vertex 47.416128060534646 46.30987193946543 60.324999999999996
vertex 46.10100000000003 45.30073868596882 60.324999999999996
endloop
endfacet
facet normal -0.5000000000000022 -0.8660254037844374 0.0
outer loop
vertex 39.75100000000003 45.30073868596882 60.324999999999996
vertex 38.435871939465414 46.30987193946543 57.15
vertex 39.75100000000003 45.30073868596882 57.15
endloop
endfacet
facet normal -0.7071067811865531 -0.707106781186542 0.0
outer loop
vertex 38.435871939465414 46.30987193946543 57.15
vertex 39.75100000000003 45.30073868596882 60.324999999999996
vertex 38.435871939465414 46.30987193946543 60.324999999999996
endloop
endfacet
facet normal -0.866025403784444 -0.4999999999999909 0.0
outer loop
vertex 37.42673868596888 47.625 60.324999999999996
vertex 38.435871939465414 46.30987193946543 57.15
vertex 38.435871939465414 46.30987193946543 60.324999999999996
endloop
endfacet
facet normal -0.7071067811865531 -0.707106781186542 0.0
outer loop
vertex 38.435871939465414 46.30987193946543 57.15
vertex 37.42673868596888 47.625 60.324999999999996
vertex 37.42673868596888 47.625 57.15
endloop
endfacet
facet normal -0.7071067811865531 0.707106781186542 0.0
outer loop
vertex 38.435871939465414 55.29012806053456 60.324999999999996
vertex 37.42673868596888 53.974999999999994 57.15
vertex 37.42673868596888 53.974999999999994 60.324999999999996
endloop
endfacet
facet normal -0.866025403784444 0.4999999999999909 0.0
outer loop
vertex 37.42673868596888 53.974999999999994 57.15
vertex 38.435871939465414 55.29012806053456 60.324999999999996
vertex 38.435871939465414 55.29012806053456 57.15
endloop
endfacet
facet normal -1.0 0.0 0.0
outer loop
vertex 36.57600000000003 50.8 60.324999999999996
vertex 36.79237100306446 49.15649906359899 57.15
vertex 36.79237100306446 49.15649906359899 60.324999999999996
endloop
endfacet
facet normal -0.9659258262890663 -0.25881904510252873 0.0
outer loop
vertex 36.79237100306446 49.15649906359899 57.15
vertex 36.57600000000003 50.8 60.324999999999996
vertex 36.57600000000003 50.8 57.15
endloop
endfacet
facet normal 0.0 -1.0 0.0
outer loop
vertex 42.92600000000003 44.449999999999996 60.324999999999996
vertex 41.28249906359898 44.666371003064405 57.15
vertex 42.92600000000003 44.449999999999996 57.15
endloop
endfacet
facet normal -0.25881904510252557 -0.9659258262890672 0.0
outer loop
vertex 41.28249906359898 44.666371003064405 57.15
vertex 42.92600000000003 44.449999999999996 60.324999999999996
vertex 41.28249906359898 44.666371003064405 60.324999999999996
endloop
endfacet
facet normal -0.9659258262890663 0.25881904510252873 0.0
outer loop
vertex 36.79237100306446 52.443500936401 60.324999999999996
vertex 36.57600000000003 50.8 57.15
vertex 36.57600000000003 50.8 60.324999999999996
endloop
endfacet
facet normal -1.0 0.0 0.0
outer loop
vertex 36.57600000000003 50.8 57.15
vertex 36.79237100306446 52.443500936401 60.324999999999996
vertex 36.79237100306446 52.443500936401 57.15
endloop
endfacet
facet normal 0.0 0.0 1.0
outer loop
vertex 27.05100000000003 19.049999999999997 60.324999999999996
vertex 36.79237100306446 49.15649906359899 60.324999999999996
vertex 27.05100000000003 98.425 60.324999999999996
endloop
endfacet
facet normal 0.0 0.0 1.0
outer loop
vertex 36.79237100306446 49.15649906359899 60.324999999999996
vertex 27.05100000000003 19.049999999999997 60.324999999999996
vertex 37.42673868596888 47.625 60.324999999999996
endloop
endfacet
facet normal 0.0 0.0 1.0
outer loop
vertex 37.42673868596888 47.625 60.324999999999996
vertex 27.05100000000003 19.049999999999997 60.324999999999996
vertex 58.80099999999994 19.049999999999997 60.324999999999996
endloop
endfacet
facet normal 0.0 0.0 1.0
outer loop
vertex 27.05100000000003 98.425 60.324999999999996
vertex 36.79237100306446 49.15649906359899 60.324999999999996
vertex 36.57600000000003 50.8 60.324999999999996
endloop
endfacet
facet normal 0.0 0.0 1.0
outer loop
vertex 37.42673868596888 47.625 60.324999999999996
vertex 58.80099999999994 19.049999999999997 60.324999999999996
vertex 38.435871939465414 46.30987193946543 60.324999999999996
endloop
endfacet
facet normal 0.0 0.0 1.0
outer loop
vertex 38.435871939465414 46.30987193946543 60.324999999999996
vertex 58.80099999999994 19.049999999999997 60.324999999999996
vertex 39.75100000000003 45.30073868596882 60.324999999999996
endloop
endfacet
facet normal 0.0 0.0 1.0
outer loop
vertex 39.75100000000003 45.30073868596882 60.324999999999996
vertex 58.80099999999994 19.049999999999997 60.324999999999996
vertex 41.28249906359898 44.666371003064405 60.324999999999996
endloop
endfacet
facet normal 0.0 0.0 1.0
outer loop
vertex 41.28249906359898 44.666371003064405 60.324999999999996
vertex 58.80099999999994 19.049999999999997 60.324999999999996
vertex 42.92600000000003 44.449999999999996 60.324999999999996
endloop
endfacet
facet normal 0.0 0.0 1.0
outer loop
vertex 42.92600000000003 44.449999999999996 60.324999999999996
vertex 58.80099999999994 19.049999999999997 60.324999999999996
vertex 44.56950093640108 44.666371003064405 60.324999999999996
endloop
endfacet
facet normal 0.0 0.0 1.0
outer loop
vertex 44.56950093640108 44.666371003064405 60.324999999999996
vertex 58.80099999999994 19.049999999999997 60.324999999999996
vertex 46.10100000000003 45.30073868596882 60.324999999999996
endloop
endfacet
facet normal 0.0 0.0 1.0
outer loop
vertex 46.10100000000003 45.30073868596882 60.324999999999996
vertex 58.80099999999994 19.049999999999997 60.324999999999996
vertex 47.416128060534646 46.30987193946543 60.324999999999996
endloop
endfacet
facet normal 0.0 0.0 1.0
outer loop
vertex 47.416128060534646 46.30987193946543 60.324999999999996
vertex 58.80099999999994 19.049999999999997 60.324999999999996
vertex 48.42526131403118 47.625 60.324999999999996
endloop
endfacet
facet normal 0.0 0.0 1.0
outer loop
vertex 48.42526131403118 47.625 60.324999999999996
vertex 58.80099999999994 19.049999999999997 60.324999999999996
vertex 49.0596289969356 49.15649906359899 60.324999999999996
endloop
endfacet
facet normal 0.0 0.0 1.0
outer loop
vertex 49.0596289969356 49.15649906359899 60.324999999999996
vertex 58.80099999999994 19.049999999999997 60.324999999999996
vertex 49.27600000000003 50.8 60.324999999999996
endloop
endfacet
facet normal 0.0 0.0 1.0
outer loop
vertex 27.05100000000003 98.425 60.324999999999996
vertex 37.42673868596888 53.974999999999994 60.324999999999996
vertex 58.80100000000003 98.425 60.324999999999996
endloop
endfacet
facet normal 0.0 0.0 1.0
outer loop
vertex 37.42673868596888 53.974999999999994 60.324999999999996
vertex 27.05100000000003 98.425 60.324999999999996
vertex 36.79237100306446 52.443500936401 60.324999999999996
endloop
endfacet
facet normal 0.0 0.0 1.0
outer loop
vertex 36.79237100306446 52.443500936401 60.324999999999996
vertex 27.05100000000003 98.425 60.324999999999996
vertex 36.57600000000003 50.8 60.324999999999996
endloop
endfacet
facet normal 0.0 0.0 1.0
outer loop
vertex 58.80100000000003 98.425 60.324999999999996
vertex 37.42673868596888 53.974999999999994 60.324999999999996
vertex 38.435871939465414 55.29012806053456 60.324999999999996
endloop
endfacet
facet normal 0.0 0.0 1.0
outer loop
vertex 58.80100000000003 98.425 60.324999999999996
vertex 38.435871939465414 55.29012806053456 60.324999999999996
vertex 39.75100000000003 56.29926131403118 60.324999999999996
endloop
endfacet
facet normal 0.0 0.0 1.0
outer loop
vertex 58.80100000000003 98.425 60.324999999999996
vertex 39.75100000000003 56.29926131403118 60.324999999999996
vertex 41.28249906359898 56.93362899693559 60.324999999999996
endloop
endfacet
facet normal 0.0 0.0 1.0
outer loop
vertex 58.80100000000003 98.425 60.324999999999996
vertex 41.28249906359898 56.93362899693559 60.324999999999996
vertex 42.92600000000003 57.15 60.324999999999996
endloop
endfacet
facet normal 0.0 0.0 1.0
outer loop
vertex 58.80100000000003 98.425 60.324999999999996
vertex 42.92600000000003 57.15 60.324999999999996
vertex 44.56950093640108 56.93362899693559 60.324999999999996
endloop
endfacet
facet normal 0.0 0.0 1.0
outer loop
vertex 58.80100000000003 98.425 60.324999999999996
vertex 44.56950093640108 56.93362899693559 60.324999999999996
vertex 46.10100000000003 56.29926131403118 60.324999999999996
endloop
endfacet
facet normal 0.0 0.0 1.0
outer loop
vertex 58.80100000000003 98.425 60.324999999999996
vertex 46.10100000000003 56.29926131403118 60.324999999999996
vertex 47.416128060534646 55.29012806053456 60.324999999999996
endloop
endfacet
facet normal 0.0 0.0 1.0
outer loop
vertex 58.80100000000003 98.425 60.324999999999996
vertex 47.416128060534646 55.29012806053456 60.324999999999996
vertex 48.42526131403118 53.974999999999994 60.324999999999996
endloop
endfacet
facet normal 0.0 0.0 1.0
outer loop
vertex 58.80100000000003 98.425 60.324999999999996
vertex 48.42526131403118 53.974999999999994 60.324999999999996
vertex 49.0596289969356 52.443500936401 60.324999999999996
endloop
endfacet
facet normal 0.0 0.0 1.0
outer loop
vertex 58.80100000000003 98.425 60.324999999999996
vertex 49.0596289969356 52.443500936401 60.324999999999996
vertex 49.27600000000003 50.8 60.324999999999996
endloop
endfacet
facet normal 0.0 0.0 1.0
outer loop
vertex 58.80100000000003 98.425 60.324999999999996
vertex 49.27600000000003 50.8 60.324999999999996
vertex 58.80099999999994 19.049999999999997 60.324999999999996
endloop
endfacet
facet normal 0.866025403784444 0.4999999999999909 0.0
outer loop
vertex 48.42526131403118 53.974999999999994 57.15
vertex 49.0596289969356 52.443500936401 60.324999999999996
vertex 49.0596289969356 52.443500936401 57.15
endloop
endfacet
facet normal 0.9659258262890663 0.25881904510252873 0.0
outer loop
vertex 49.0596289969356 52.443500936401 60.324999999999996
vertex 48.42526131403118 53.974999999999994 57.15
vertex 48.42526131403118 53.974999999999994 60.324999999999996
endloop
endfacet
facet normal 0.0 -1.0 0.0
outer loop
vertex 55.626000000000026 95.25 19.049999999999997
vertex 45.67563065701563 95.25000000000027 39.6875
vertex 30.22600000000003 95.25 19.049999999999997
endloop
endfacet
facet normal 0.0 -1.0 0.0
outer loop
vertex 45.67563065701563 95.25000000000027 39.6875
vertex 55.626000000000026 95.25 19.049999999999997
vertex 55.626000000000026 95.25 57.15
endloop
endfacet
facet normal 0.0 -1.0 0.0
outer loop
vertex 30.22600000000003 95.25 19.049999999999997
vertex 45.67563065701563 95.25000000000027 39.6875
vertex 45.17106403026732 95.25000000000027 39.02993596973271
endloop
endfacet
facet normal 0.0 -1.0 0.0
outer loop
vertex 30.22600000000003 95.25 19.049999999999997
vertex 45.17106403026732 95.25000000000027 39.02993596973271
vertex 44.51350000000003 95.25000000000027 38.5253693429844
endloop
endfacet
facet normal 0.0 -1.0 0.0
outer loop
vertex 30.22600000000003 95.25 19.049999999999997
vertex 44.51350000000003 95.25000000000027 38.5253693429844
vertex 43.74775046820053 95.25000000000027 38.20818550153221
endloop
endfacet
facet normal 0.0 -1.0 0.0
outer loop
vertex 30.22600000000003 95.25 19.049999999999997
vertex 43.74775046820053 95.25000000000027 38.20818550153221
vertex 42.92600000000003 95.25000000000027 38.099999999999994
endloop
endfacet
facet normal 0.0 -1.0 0.0
outer loop
vertex 45.67563065701563 95.25000000000027 39.6875
vertex 55.626000000000026 95.25 57.15
vertex 45.992814498467816 95.25000000000027 40.4532495317995
endloop
endfacet
facet normal 0.0 -1.0 0.0
outer loop
vertex 45.992814498467816 95.25000000000027 40.4532495317995
vertex 55.626000000000026 95.25 57.15
vertex 46.10100000000003 95.25000000000027 41.275
endloop
endfacet
facet normal 0.0 -1.0 0.0
outer loop
vertex 46.10100000000003 95.25000000000027 41.275
vertex 55.626000000000026 95.25 57.15
vertex 45.992814498467816 95.25000000000027 42.0967504682005
endloop
endfacet
facet normal 0.0 -1.0 0.0
outer loop
vertex 45.992814498467816 95.25000000000027 42.0967504682005
vertex 55.626000000000026 95.25 57.15
vertex 45.67563065701563 95.25000000000027 42.8625
endloop
endfacet
facet normal 0.0 -1.0 0.0
outer loop
vertex 45.67563065701563 95.25000000000027 42.8625
vertex 55.626000000000026 95.25 57.15
vertex 45.17106403026732 95.25000000000027 43.52006403026728
endloop
endfacet
facet normal 0.0 -1.0 0.0
outer loop
vertex 45.17106403026732 95.25000000000027 43.52006403026728
vertex 55.626000000000026 95.25 57.15
vertex 44.51350000000003 95.25000000000027 44.0246306570156
endloop
endfacet
facet normal 0.0 -1.0 0.0
outer loop
vertex 44.51350000000003 95.25000000000027 44.0246306570156
vertex 55.626000000000026 95.25 57.15
vertex 43.74775046820053 95.25000000000027 44.341814498467784
endloop
endfacet
facet normal 0.0 -1.0 0.0
outer loop
vertex 43.74775046820053 95.25000000000027 44.341814498467784
vertex 55.626000000000026 95.25 57.15
vertex 42.92600000000003 95.25000000000027 44.449999999999996
endloop
endfacet
facet normal 0.0 -1.0 0.0
outer loop
vertex 30.22600000000003 95.25 19.049999999999997
vertex 40.17636934298443 95.25000000000027 39.6875
vertex 30.22600000000003 95.25 57.15
endloop
endfacet
facet normal 0.0 -1.0 0.0
outer loop
vertex 40.17636934298443 95.25000000000027 39.6875
vertex 30.22600000000003 95.25 19.049999999999997
vertex 40.680935969732744 95.25000000000027 39.02993596973271
endloop
endfacet
facet normal 0.0 -1.0 0.0
outer loop
vertex 40.680935969732744 95.25000000000027 39.02993596973271
vertex 30.22600000000003 95.25 19.049999999999997
vertex 41.33850000000003 95.25000000000027 38.5253693429844
endloop
endfacet
facet normal 0.0 -1.0 0.0
outer loop
vertex 41.33850000000003 95.25000000000027 38.5253693429844
vertex 30.22600000000003 95.25 19.049999999999997
vertex 42.10424953179953 95.25000000000027 38.20818550153221
endloop
endfacet
facet normal 0.0 -1.0 0.0
outer loop
vertex 42.10424953179953 95.25000000000027 38.20818550153221
vertex 30.22600000000003 95.25 19.049999999999997
vertex 42.92600000000003 95.25000000000027 38.099999999999994
endloop
endfacet
facet normal 0.0 -1.0 0.0
outer loop
vertex 30.22600000000003 95.25 57.15
vertex 40.17636934298443 95.25000000000027 39.6875
vertex 39.859185501532245 95.25000000000027 40.4532495317995
endloop
endfacet
facet normal 0.0 -1.0 0.0
outer loop
vertex 30.22600000000003 95.25 57.15
vertex 39.859185501532245 95.25000000000027 40.4532495317995
vertex 39.75100000000003 95.25000000000027 41.275
endloop
endfacet
facet normal 0.0 -1.0 0.0
outer loop
vertex 30.22600000000003 95.25 57.15
vertex 39.75100000000003 95.25000000000027 41.275
vertex 39.859185501532245 95.25000000000027 42.0967504682005
endloop
endfacet
facet normal 0.0 -1.0 0.0
outer loop
vertex 30.22600000000003 95.25 57.15
vertex 39.859185501532245 95.25000000000027 42.0967504682005
vertex 40.17636934298443 95.25000000000027 42.8625
endloop
endfacet
facet normal 0.0 -1.0 0.0
outer loop
vertex 30.22600000000003 95.25 57.15
vertex 40.17636934298443 95.25000000000027 42.8625
vertex 40.680935969732744 95.25000000000027 43.52006403026728
endloop
endfacet
facet normal 0.0 -1.0 0.0
outer loop
vertex 30.22600000000003 95.25 57.15
vertex 40.680935969732744 95.25000000000027 43.52006403026728
vertex 41.33850000000003 95.25000000000027 44.0246306570156
endloop
endfacet
facet normal 0.0 -1.0 0.0
outer loop
vertex 30.22600000000003 95.25 57.15
vertex 41.33850000000003 95.25000000000027 44.0246306570156
vertex 42.10424953179953 95.25000000000027 44.341814498467784
endloop
endfacet
facet normal 0.0 -1.0 0.0
outer loop
vertex 30.22600000000003 95.25 57.15
vertex 42.10424953179953 95.25000000000027 44.341814498467784
vertex 42.92600000000003 95.25000000000027 44.449999999999996
endloop
endfacet
facet normal 0.0 -1.0 0.0
outer loop
vertex 30.22600000000003 95.25 57.15
vertex 42.92600000000003 95.25000000000027 44.449999999999996
vertex 55.626000000000026 95.25 57.15
endloop
endfacet
facet normal 0.0 -1.0 0.0
outer loop
vertex 30.22600000000003 95.25 57.15
vertex 55.626000000000026 95.25 57.15
vertex 42.92600000000003 95.25 57.15
endloop
endfacet
facet normal 0.0 -1.0 0.0
outer loop
vertex 69.97699999999998 95.25 19.049999999999997
vertex 15.875 95.25 9.524999999999999
vertex 69.97699999999998 95.25 9.524999999999999
endloop
endfacet
facet normal 0.0 -1.0 0.0
outer loop
vertex 15.875 95.25 9.524999999999999
vertex 69.97699999999998 95.25 19.049999999999997
vertex 15.875 95.25 19.049999999999997
endloop
endfacet
facet normal 0.0 -1.0 0.0
outer loop
vertex 15.875 95.25 19.049999999999997
vertex 69.97699999999998 95.25 19.049999999999997
vertex 55.626000000000026 95.25 19.049999999999997
endloop
endfacet
facet normal 0.0 -1.0 0.0
outer loop
vertex 15.875 95.25 19.049999999999997
vertex 55.626000000000026 95.25 19.049999999999997
vertex 30.22600000000003 95.25 19.049999999999997
endloop
endfacet
facet normal 0.0 -1.0 0.0
outer loop
vertex 82.67699999999996 95.25 9.524999999999999
vertex 3.175 95.25 0.0
vertex 82.67699999999996 95.25 0.0
endloop
endfacet
facet normal 0.0 -1.0 0.0
outer loop
vertex 3.175 95.25 0.0
vertex 82.67699999999996 95.25 9.524999999999999
vertex 3.175 95.25 9.524999999999999
endloop
endfacet
facet normal 0.0 -1.0 0.0
outer loop
vertex 3.175 95.25 9.524999999999999
vertex 82.67699999999996 95.25 9.524999999999999
vertex 69.97699999999998 95.25 9.524999999999999
endloop
endfacet
facet normal 0.0 -1.0 0.0
outer loop
vertex 3.175 95.25 9.524999999999999
vertex 69.97699999999998 95.25 9.524999999999999
vertex 15.875 95.25 9.524999999999999
endloop
endfacet
facet normal 0.25881904510252557 -0.9659258262890672 0.0
outer loop
vertex 44.56950093640108 44.666371003064405 60.324999999999996
vertex 42.92600000000003 44.449999999999996 57.15
vertex 44.56950093640108 44.666371003064405 57.15
endloop
endfacet
facet normal 0.0 -1.0 0.0
outer loop
vertex 42.92600000000003 44.449999999999996 57.15
vertex 44.56950093640108 44.666371003064405 60.324999999999996
vertex 42.92600000000003 44.449999999999996 60.324999999999996
endloop
endfacet
facet normal -0.25881904510252557 0.9659258262890672 0.0
outer loop
vertex 41.28249906359898 56.93362899693559 60.324999999999996
vertex 42.92600000000003 57.15 57.15
vertex 41.28249906359898 56.93362899693559 57.15
endloop
endfacet
facet normal 0.0 1.0 0.0
outer loop
vertex 42.92600000000003 57.15 57.15
vertex 41.28249906359898 56.93362899693559 60.324999999999996
vertex 42.92600000000003 57.15 60.324999999999996
endloop
endfacet
facet normal 0.9659258262890663 0.25881904510252873 0.0
outer loop
vertex 49.0596289969356 52.443500936401 57.15
vertex 49.27600000000003 50.8 60.324999999999996
vertex 49.27600000000003 50.8 57.15
endloop
endfacet
facet normal 1.0 0.0 0.0
outer loop
vertex 49.27600000000003 50.8 60.324999999999996
vertex 49.0596289969356 52.443500936401 57.15
vertex 49.0596289969356 52.443500936401 60.324999999999996
endloop
endfacet
facet normal 0.0 -0.7071067811865477 0.7071067811865474
outer loop
vertex 55.626000000000026 20.365128060534577 57.15
vertex 30.22600000000003 3.175 39.95987193946541
vertex 55.626000000000026 3.175 39.95987193946541
endloop
endfacet
facet normal 0.0 -0.7071067811865477 0.7071067811865474
outer loop
vertex 30.22600000000003 3.175 39.95987193946541
vertex 55.626000000000026 20.365128060534577 57.15
vertex 30.22600000000003 20.365128060534577 57.15
endloop
endfacet
facet normal 1.0 0.0 0.0
outer loop
vertex 49.27600000000003 50.8 57.15
vertex 49.0596289969356 49.15649906359899 60.324999999999996
vertex 49.0596289969356 49.15649906359899 57.15
endloop
endfacet
facet normal 0.9659258262890663 -0.25881904510252873 0.0
outer loop
vertex 49.0596289969356 49.15649906359899 60.324999999999996
vertex 49.27600000000003 50.8 57.15
vertex 49.27600000000003 50.8 60.324999999999996
endloop
endfacet
facet normal -0.866025403784444 0.4999999999999909 0.0
outer loop
vertex 37.42673868596888 53.974999999999994 60.324999999999996
vertex 36.79237100306446 52.443500936401 57.15
vertex 36.79237100306446 52.443500936401 60.324999999999996
endloop
endfacet
facet normal -0.9659258262890663 0.25881904510252873 0.0
outer loop
vertex 36.79237100306446 52.443500936401 57.15
vertex 37.42673868596888 53.974999999999994 60.324999999999996
vertex 37.42673868596888 53.974999999999994 57.15
endloop
endfacet
facet normal -0.7071067811865476 0.0 0.7071067811865476
outer loop
vertex 12.7 98.425 22.224999999999998
vertex 0.0 0.0 9.524999999999999
vertex 12.7 0.0 22.224999999999998
endloop
endfacet
facet normal -0.7071067811865476 0.0 0.7071067811865476
outer loop
vertex 0.0 0.0 9.524999999999999
vertex 12.7 98.425 22.224999999999998
vertex 0.0 98.425 9.524999999999999
endloop
endfacet
facet normal 0.0 -1.0 0.0
outer loop
vertex 58.80099999999994 0.0 41.275
vertex 27.05100000000003 0.0 22.224999999999998
vertex 58.80100000000003 0.0 22.224999999999998
endloop
endfacet
facet normal 0.0 -1.0 0.0
outer loop
vertex 27.05100000000003 0.0 22.224999999999998
vertex 58.80099999999994 0.0 41.275
vertex 27.05100000000003 0.0 41.275
endloop
endfacet
facet normal 0.0 -1.0 0.0
outer loop
vertex 85.85199999999998 0.0 9.524999999999999
vertex 0.0 0.0 0.0
vertex 85.85199999999998 0.0 0.0
endloop
endfacet
facet normal 0.0 -1.0 0.0
outer loop
vertex 0.0 0.0 0.0
vertex 85.85199999999998 0.0 9.524999999999999
vertex 0.0 0.0 9.524999999999999
endloop
endfacet
facet normal 0.0 -1.0 0.0
outer loop
vertex 0.0 0.0 9.524999999999999
vertex 85.85199999999998 0.0 9.524999999999999
vertex 73.15199999999997 0.0 22.224999999999998
endloop
endfacet
facet normal 0.0 -1.0 0.0
outer loop
vertex 0.0 0.0 9.524999999999999
vertex 73.15199999999997 0.0 22.224999999999998
vertex 12.7 0.0 22.224999999999998
endloop
endfacet
facet normal 0.0 -1.0 0.0
outer loop
vertex 12.7 0.0 22.224999999999998
vertex 73.15199999999997 0.0 22.224999999999998
vertex 58.80100000000003 0.0 22.224999999999998
endloop
endfacet
facet normal 0.0 -1.0 0.0
outer loop
vertex 12.7 0.0 22.224999999999998
vertex 58.80100000000003 0.0 22.224999999999998
vertex 27.05100000000003 0.0 22.224999999999998
endloop
endfacet
facet normal 0.7071067811865476 0.0 0.7071067811865476
outer loop
vertex 85.85199999999998 98.425 9.524999999999999
vertex 73.15199999999997 0.0 22.224999999999998
vertex 85.85199999999998 0.0 9.524999999999999
endloop
endfacet
facet normal 0.7071067811865476 0.0 0.7071067811865476
outer loop
vertex 73.15199999999997 0.0 22.224999999999998
vertex 85.85199999999998 98.425 9.524999999999999
vertex 73.15199999999997 98.425 22.224999999999998
endloop
endfacet
facet normal 0.0 1.0 0.0
outer loop
vertex 27.05100000000003 42.8625 25.4
vertex 30.22600000000003 42.8625 22.224999999999998
vertex 27.05100000000003 42.8625 22.224999999999998
endloop
endfacet
facet normal 0.0 1.0 0.0
outer loop
vertex 30.22600000000003 42.8625 22.224999999999998
vertex 27.05100000000003 42.8625 25.4
vertex 30.22600000000003 42.8625 25.4
endloop
endfacet
facet normal 0.0 0.9659258262890688 -0.25881904510251935
outer loop
vertex 27.05100000000003 43.078871003064414 27.043500936401
vertex 30.22600000000003 42.8625 25.4
vertex 27.05100000000003 42.8625 25.4
endloop
endfacet
facet normal 0.0 0.9914448613738102 -0.13052619222005404
outer loop
vertex 30.22600000000003 42.8625 25.4
vertex 27.05100000000003 43.078871003064414 27.043500936401
vertex 30.22600000000003 43.078871003064414 27.043500936401
endloop
endfacet
facet normal 0.0 0.8660254037844392 -0.4999999999999994
outer loop
vertex 27.05100000000003 43.71323868596881 28.575
vertex 30.22600000000003 43.078871003064414 27.043500936401
vertex 27.05100000000003 43.078871003064414 27.043500936401
endloop
endfacet
facet normal 0.0 0.9659258262890688 -0.25881904510251935
outer loop
vertex 30.22600000000003 43.078871003064414 27.043500936401
vertex 27.05100000000003 43.71323868596881 28.575
vertex 30.22600000000003 43.71323868596881 28.575
endloop
endfacet
facet normal 0.0 0.707106781186546 -0.7071067811865491
outer loop
vertex 27.05100000000003 44.72237193946542 29.890128060534565
vertex 30.22600000000003 43.71323868596881 28.575
vertex 27.05100000000003 43.71323868596881 28.575
endloop
endfacet
facet normal 0.0 0.8660254037844392 -0.4999999999999994
outer loop
vertex 30.22600000000003 43.71323868596881 28.575
vertex 27.05100000000003 44.72237193946542 29.890128060534565
vertex 30.22600000000003 44.72237193946542 29.890128060534565
endloop
endfacet
facet normal 0.0 0.5000000000000031 -0.8660254037844369
outer loop
vertex 30.22600000000003 46.037499999999994 30.899261314031175
vertex 27.05100000000003 44.72237193946542 29.890128060534565
vertex 27.05100000000003 46.037499999999994 30.899261314031175
endloop
endfacet
facet normal 0.0 0.707106781186546 -0.7071067811865491
outer loop
vertex 27.05100000000003 44.72237193946542 29.890128060534565
vertex 30.22600000000003 46.037499999999994 30.899261314031175
vertex 30.22600000000003 44.72237193946542 29.890128060534565
endloop
endfacet
facet normal 0.0 0.25881904510252224 -0.9659258262890679
outer loop
vertex 30.22600000000003 47.568999063598994 31.53362899693559
vertex 27.05100000000003 46.037499999999994 30.899261314031175
vertex 27.05100000000003 47.568999063598994 31.53362899693559
endloop
endfacet
facet normal 0.0 0.5000000000000031 -0.8660254037844369
outer loop
vertex 27.05100000000003 46.037499999999994 30.899261314031175
vertex 30.22600000000003 47.568999063598994 31.53362899693559
vertex 30.22600000000003 46.037499999999994 30.899261314031175
endloop
endfacet
facet normal 0.0 4.455554947823449e-16 -1.0
outer loop
vertex 30.22600000000003 49.2125 31.75
vertex 27.05100000000003 47.568999063598994 31.53362899693559
vertex 27.05100000000003 49.2125 31.75
endloop
endfacet
facet normal 0.0 0.25881904510252224 -0.9659258262890679
outer loop
vertex 27.05100000000003 47.568999063598994 31.53362899693559
vertex 30.22600000000003 49.2125 31.75
vertex 30.22600000000003 47.568999063598994 31.53362899693559
endloop
endfacet
facet normal 0.0 -0.258819045102523 -0.9659258262890679
outer loop
vertex 30.22600000000003 50.85600093640101 31.53362899693559
vertex 27.05100000000003 49.2125 31.75
vertex 27.05100000000003 50.85600093640101 31.53362899693559
endloop
endfacet
facet normal 0.0 4.455554947823449e-16 -1.0
outer loop
vertex 27.05100000000003 49.2125 31.75
vertex 30.22600000000003 50.85600093640101 31.53362899693559
vertex 30.22600000000003 49.2125 31.75
endloop
endfacet
facet normal 0.0 -0.5000000000000041 -0.8660254037844362
outer loop
vertex 30.22600000000003 52.387499999999996 30.899261314031175
vertex 27.05100000000003 50.85600093640101 31.53362899693559
vertex 27.05100000000003 52.387499999999996 30.899261314031175
endloop
endfacet
facet normal 0.0 -0.258819045102523 -0.9659258262890679
outer loop
vertex 27.05100000000003 50.85600093640101 31.53362899693559
vertex 30.22600000000003 52.387499999999996 30.899261314031175
vertex 30.22600000000003 50.85600093640101 31.53362899693559
endloop
endfacet
facet normal 0.0 -0.707106781186546 -0.7071067811865491
outer loop
vertex 30.22600000000003 53.70262806053458 29.890128060534565
vertex 27.05100000000003 52.387499999999996 30.899261314031175
vertex 27.05100000000003 53.70262806053458 29.890128060534565
endloop
endfacet
facet normal 0.0 -0.5000000000000041 -0.8660254037844362
outer loop
vertex 27.05100000000003 52.387499999999996 30.899261314031175
vertex 30.22600000000003 53.70262806053458 29.890128060534565
vertex 30.22600000000003 52.387499999999996 30.899261314031175
endloop
endfacet
facet normal 0.0 -0.707106781186546 -0.7071067811865491
outer loop
vertex 30.22600000000003 53.70262806053458 29.890128060534565
vertex 27.05100000000003 54.711761314031186 28.575
vertex 30.22600000000003 54.711761314031186 28.575
endloop
endfacet
facet normal 0.0 -0.8660254037844392 -0.4999999999999994
outer loop
vertex 27.05100000000003 54.711761314031186 28.575
vertex 30.22600000000003 53.70262806053458 29.890128060534565
vertex 27.05100000000003 53.70262806053458 29.890128060534565
endloop
endfacet
facet normal 0.0 -0.8660254037844392 -0.4999999999999994
outer loop
vertex 30.22600000000003 54.711761314031186 28.575
vertex 27.05100000000003 55.346128996935576 27.043500936401
vertex 30.22600000000003 55.346128996935576 27.043500936401
endloop
endfacet
facet normal 0.0 -0.9659258262890688 -0.25881904510251935
outer loop
vertex 27.05100000000003 55.346128996935576 27.043500936401
vertex 30.22600000000003 54.711761314031186 28.575
vertex 27.05100000000003 54.711761314031186 28.575
endloop
endfacet
facet normal 0.0 -0.9659258262890688 -0.25881904510251935
outer loop
vertex 30.22600000000003 55.346128996935576 27.043500936401
vertex 27.05100000000003 55.5625 25.4
vertex 30.22600000000003 55.5625 25.4
endloop
endfacet
facet normal -0.0 -0.9914448613738102 -0.13052619222005404
outer loop
vertex 27.05100000000003 55.5625 25.4
vertex 30.22600000000003 55.346128996935576 27.043500936401
vertex 27.05100000000003 55.346128996935576 27.043500936401
endloop
endfacet
facet normal 0.0 -1.0 0.0
outer loop
vertex 30.22600000000003 55.5625 25.4
vertex 27.05100000000003 55.5625 22.224999999999998
vertex 30.22600000000003 55.5625 22.224999999999998
endloop
endfacet
facet normal 0.0 -1.0 0.0
outer loop
vertex 27.05100000000003 55.5625 22.224999999999998
vertex 30.22600000000003 55.5625 25.4
vertex 27.05100000000003 55.5625 25.4
endloop
endfacet
facet normal 0.0 -1.0 0.0
outer loop
vertex 58.80100000000003 55.5625 25.4
vertex 55.626000000000026 55.5625 22.224999999999998
vertex 58.80100000000003 55.5625 22.224999999999998
endloop
endfacet
facet normal 0.0 -1.0 0.0
outer loop
vertex 55.626000000000026 55.5625 22.224999999999998
vertex 58.80100000000003 55.5625 25.4
vertex 55.626000000000026 55.5625 25.4
endloop
endfacet
facet normal 0.0 -0.9659258262890688 -0.25881904510251935
outer loop
vertex 58.80100000000003 55.346128996935576 27.043500936401
vertex 55.626000000000026 55.5625 25.4
vertex 58.80100000000003 55.5625 25.4
endloop
endfacet
facet normal -0.0 -0.9914448613738102 -0.13052619222005404
outer loop
vertex 55.626000000000026 55.5625 25.4
vertex 58.80100000000003 55.346128996935576 27.043500936401
vertex 55.626000000000026 55.346128996935576 27.043500936401
endloop
endfacet
facet normal 0.0 -0.8660254037844392 -0.4999999999999994
outer loop
vertex 58.80100000000003 54.711761314031186 28.575
vertex 55.626000000000026 55.346128996935576 27.043500936401
vertex 58.80100000000003 55.346128996935576 27.043500936401
endloop
endfacet
facet normal 0.0 -0.9659258262890688 -0.25881904510251935
outer loop
vertex 55.626000000000026 55.346128996935576 27.043500936401
vertex 58.80100000000003 54.711761314031186 28.575
vertex 55.626000000000026 54.711761314031186 28.575
endloop
endfacet
facet normal 0.0 -0.707106781186546 -0.7071067811865491
outer loop
vertex 58.80100000000003 53.70262806053458 29.890128060534565
vertex 55.626000000000026 54.711761314031186 28.575
vertex 58.80100000000003 54.711761314031186 28.575
endloop
endfacet
facet normal 0.0 -0.8660254037844392 -0.4999999999999994
outer loop
vertex 55.626000000000026 54.711761314031186 28.575
vertex 58.80100000000003 53.70262806053458 29.890128060534565
vertex 55.626000000000026 53.70262806053458 29.890128060534565
endloop
endfacet
facet normal 0.0 -0.707106781186546 -0.7071067811865491
outer loop
vertex 58.80100000000003 53.70262806053458 29.890128060534565
vertex 55.626000000000026 52.387499999999996 30.899261314031175
vertex 55.626000000000026 53.70262806053458 29.890128060534565
endloop
endfacet
facet normal 0.0 -0.5000000000000031 -0.8660254037844369
outer loop
vertex 55.626000000000026 52.387499999999996 30.899261314031175
vertex 58.80100000000003 53.70262806053458 29.890128060534565
vertex 58.80100000000003 52.387499999999996 30.899261314031175
endloop
endfacet
facet normal 0.0 -0.5000000000000031 -0.8660254037844369
outer loop
vertex 58.80100000000003 52.387499999999996 30.899261314031175
vertex 55.626000000000026 50.856000936400996 31.53362899693559
vertex 55.626000000000026 52.387499999999996 30.899261314031175
endloop
endfacet
facet normal 0.0 -0.25881904510252224 -0.9659258262890679
outer loop
vertex 55.626000000000026 50.856000936400996 31.53362899693559
vertex 58.80100000000003 52.387499999999996 30.899261314031175
vertex 58.80100000000003 50.856000936400996 31.53362899693559
endloop
endfacet
facet normal 0.0 -0.25881904510252224 -0.9659258262890679
outer loop
vertex 58.80100000000003 50.856000936400996 31.53362899693559
vertex 55.626000000000026 49.2125 31.75
vertex 55.626000000000026 50.856000936400996 31.53362899693559
endloop
endfacet
facet normal 0.0 -4.455554947823449e-16 -1.0
outer loop
vertex 55.626000000000026 49.2125 31.75
vertex 58.80100000000003 50.856000936400996 31.53362899693559
vertex 58.80100000000003 49.2125 31.75
endloop
endfacet
facet normal 0.0 -4.455554947823449e-16 -1.0
outer loop
vertex 58.80100000000003 49.2125 31.75
vertex 55.626000000000026 47.56899906359899 31.53362899693559
vertex 55.626000000000026 49.2125 31.75
endloop
endfacet
facet normal 0.0 0.258819045102523 -0.9659258262890679
outer loop
vertex 55.626000000000026 47.56899906359899 31.53362899693559
vertex 58.80100000000003 49.2125 31.75
vertex 58.80100000000003 47.56899906359899 31.53362899693559
endloop
endfacet
facet normal 0.0 0.258819045102523 -0.9659258262890679
outer loop
vertex 58.80100000000003 47.56899906359899 31.53362899693559
vertex 55.626000000000026 46.037499999999994 30.899261314031175
vertex 55.626000000000026 47.56899906359899 31.53362899693559
endloop
endfacet
facet normal 0.0 0.5000000000000041 -0.8660254037844362
outer loop
vertex 55.626000000000026 46.037499999999994 30.899261314031175
vertex 58.80100000000003 47.56899906359899 31.53362899693559
vertex 58.80100000000003 46.037499999999994 30.899261314031175
endloop
endfacet
facet normal 0.0 0.5000000000000041 -0.8660254037844362
outer loop
vertex 58.80100000000003 46.037499999999994 30.899261314031175
vertex 55.626000000000026 44.72237193946542 29.890128060534565
vertex 55.626000000000026 46.037499999999994 30.899261314031175
endloop
endfacet
facet normal 0.0 0.707106781186546 -0.7071067811865491
outer loop
vertex 55.626000000000026 44.72237193946542 29.890128060534565
vertex 58.80100000000003 46.037499999999994 30.899261314031175
vertex 58.80100000000003 44.72237193946542 29.890128060534565
endloop
endfacet
facet normal 0.0 0.707106781186546 -0.7071067811865491
outer loop
vertex 55.626000000000026 44.72237193946542 29.890128060534565
vertex 58.80100000000003 43.71323868596881 28.575
vertex 55.626000000000026 43.71323868596881 28.575
endloop
endfacet
facet normal 0.0 0.8660254037844392 -0.4999999999999994
outer loop
vertex 58.80100000000003 43.71323868596881 28.575
vertex 55.626000000000026 44.72237193946542 29.890128060534565
vertex 58.80100000000003 44.72237193946542 29.890128060534565
endloop
endfacet
facet normal 0.0 0.8660254037844392 -0.4999999999999994
outer loop
vertex 55.626000000000026 43.71323868596881 28.575
vertex 58.80100000000003 43.078871003064414 27.043500936401
vertex 55.626000000000026 43.078871003064414 27.043500936401
endloop
endfacet
facet normal 0.0 0.9659258262890688 -0.25881904510251935
outer loop
vertex 58.80100000000003 43.078871003064414 27.043500936401
vertex 55.626000000000026 43.71323868596881 28.575
vertex 58.80100000000003 43.71323868596881 28.575
endloop
endfacet
facet normal 0.0 0.9659258262890688 -0.25881904510251935
outer loop
vertex 55.626000000000026 43.078871003064414 27.043500936401
vertex 58.80100000000003 42.8625 25.4
vertex 55.626000000000026 42.8625 25.4
endloop
endfacet
facet normal 0.0 0.9914448613738102 -0.13052619222005404
outer loop
vertex 58.80100000000003 42.8625 25.4
vertex 55.626000000000026 43.078871003064414 27.043500936401
vertex 58.80100000000003 43.078871003064414 27.043500936401
endloop
endfacet
facet normal 0.0 1.0 0.0
outer loop
vertex 55.626000000000026 42.8625 25.4
vertex 58.80100000000003 42.8625 22.224999999999998
vertex 55.626000000000026 42.8625 22.224999999999998
endloop
endfacet
facet normal 0.0 1.0 0.0
outer loop
vertex 58.80100000000003 42.8625 22.224999999999998
vertex 55.626000000000026 42.8625 25.4
vertex 58.80100000000003 42.8625 25.4
endloop
endfacet
facet normal 0.0 1.0 0.0
outer loop
vertex 27.05100000000003 98.425 22.224999999999998
vertex 40.680935969732744 98.425 39.02993596973271
vertex 58.80100000000003 98.425 22.224999999999998
endloop
endfacet
facet normal 0.0 1.0 0.0
outer loop
vertex 40.680935969732744 98.425 39.02993596973271
vertex 27.05100000000003 98.425 22.224999999999998
vertex 40.17636934298443 98.425 39.6875
endloop
endfacet
facet normal 0.0 1.0 0.0
outer loop
vertex 40.17636934298443 98.425 39.6875
vertex 27.05100000000003 98.425 22.224999999999998
vertex 27.05100000000003 98.425 60.324999999999996
endloop
endfacet
facet normal 0.0 1.0 0.0
outer loop
vertex 58.80100000000003 98.425 22.224999999999998
vertex 40.680935969732744 98.425 39.02993596973271
vertex 41.33850000000003 98.425 38.5253693429844
endloop
endfacet
facet normal 0.0 1.0 0.0
outer loop
vertex 58.80100000000003 98.425 22.224999999999998
vertex 41.33850000000003 98.425 38.5253693429844
vertex 42.10424953179953 98.425 38.20818550153221
endloop
endfacet
facet normal 0.0 1.0 0.0
outer loop
vertex 58.80100000000003 98.425 22.224999999999998
vertex 42.10424953179953 98.425 38.20818550153221
vertex 42.92600000000003 98.425 38.099999999999994
endloop
endfacet
facet normal 0.0 1.0 0.0
outer loop
vertex 40.17636934298443 98.425 39.6875
vertex 27.05100000000003 98.425 60.324999999999996
vertex 39.859185501532245 98.425 40.4532495317995
endloop
endfacet
facet normal 0.0 1.0 0.0
outer loop
vertex 39.859185501532245 98.425 40.4532495317995
vertex 27.05100000000003 98.425 60.324999999999996
vertex 39.75100000000003 98.425 41.275
endloop
endfacet
facet normal 0.0 1.0 0.0
outer loop
vertex 39.75100000000003 98.425 41.275
vertex 27.05100000000003 98.425 60.324999999999996
vertex 39.859185501532245 98.425 42.0967504682005
endloop
endfacet
facet normal 0.0 1.0 0.0
outer loop
vertex 39.859185501532245 98.425 42.0967504682005
vertex 27.05100000000003 98.425 60.324999999999996
vertex 40.17636934298443 98.425 42.8625
endloop
endfacet
facet normal 0.0 1.0 0.0
outer loop
vertex 40.17636934298443 98.425 42.8625
vertex 27.05100000000003 98.425 60.324999999999996
vertex 40.680935969732744 98.425 43.52006403026728
endloop
endfacet
facet normal 0.0 1.0 0.0
outer loop
vertex 40.680935969732744 98.425 43.52006403026728
vertex 27.05100000000003 98.425 60.324999999999996
vertex 41.33850000000003 98.425 44.0246306570156
endloop
endfacet
facet normal 0.0 1.0 0.0
outer loop
vertex 41.33850000000003 98.425 44.0246306570156
vertex 27.05100000000003 98.425 60.324999999999996
vertex 42.10424953179953 98.425 44.341814498467784
endloop
endfacet
facet normal 0.0 1.0 0.0
outer loop
vertex 42.10424953179953 98.425 44.341814498467784
vertex 27.05100000000003 98.425 60.324999999999996
vertex 42.92600000000003 98.425 44.449999999999996
endloop
endfacet
facet normal 0.0 1.0 0.0
outer loop
vertex 58.80100000000003 98.425 22.224999999999998
vertex 45.67563065701563 98.425 39.6875
vertex 58.80100000000003 98.425 60.324999999999996
endloop
endfacet
facet normal 0.0 1.0 0.0
outer loop
vertex 45.67563065701563 98.425 39.6875
vertex 58.80100000000003 98.425 22.224999999999998
vertex 45.17106403026732 98.425 39.02993596973271
endloop
endfacet
facet normal 0.0 1.0 0.0
outer loop
vertex 45.17106403026732 98.425 39.02993596973271
vertex 58.80100000000003 98.425 22.224999999999998
vertex 44.51350000000003 98.425 38.5253693429844
endloop
endfacet
facet normal 0.0 1.0 0.0
outer loop
vertex 44.51350000000003 98.425 38.5253693429844
vertex 58.80100000000003 98.425 22.224999999999998
vertex 43.74775046820053 98.425 38.20818550153221
endloop
endfacet
facet normal 0.0 1.0 0.0
outer loop
vertex 43.74775046820053 98.425 38.20818550153221
vertex 58.80100000000003 98.425 22.224999999999998
vertex 42.92600000000003 98.425 38.099999999999994
endloop
endfacet
facet normal 0.0 1.0 0.0
outer loop
vertex 58.80100000000003 98.425 60.324999999999996
vertex 45.67563065701563 98.425 39.6875
vertex 45.992814498467816 98.425 40.4532495317995
endloop
endfacet
facet normal 0.0 1.0 0.0
outer loop
vertex 58.80100000000003 98.425 60.324999999999996
vertex 45.992814498467816 98.425 40.4532495317995
vertex 46.10100000000003 98.425 41.275
endloop
endfacet
facet normal 0.0 1.0 0.0
outer loop
vertex 58.80100000000003 98.425 60.324999999999996
vertex 46.10100000000003 98.425 41.275
vertex 45.992814498467816 98.425 42.0967504682005
endloop
endfacet
facet normal 0.0 1.0 0.0
outer loop
vertex 58.80100000000003 98.425 60.324999999999996
vertex 45.992814498467816 98.425 42.0967504682005
vertex 45.67563065701563 98.425 42.8625
endloop
endfacet
facet normal 0.0 1.0 0.0
outer loop
vertex 58.80100000000003 98.425 60.324999999999996
vertex 45.67563065701563 98.425 42.8625
vertex 45.17106403026732 98.425 43.52006403026728
endloop
endfacet
facet normal 0.0 1.0 0.0
outer loop
vertex 58.80100000000003 98.425 60.324999999999996
vertex 45.17106403026732 98.425 43.52006403026728
vertex 44.51350000000003 98.425 44.0246306570156
endloop
endfacet
facet normal 0.0 1.0 0.0
outer loop
vertex 58.80100000000003 98.425 60.324999999999996
vertex 44.51350000000003 98.425 44.0246306570156
vertex 43.74775046820053 98.425 44.341814498467784
endloop
endfacet
facet normal 0.0 1.0 0.0
outer loop
vertex 58.80100000000003 98.425 60.324999999999996
vertex 43.74775046820053 98.425 44.341814498467784
vertex 42.92600000000003 98.425 44.449999999999996
endloop
endfacet
facet normal 0.0 1.0 0.0
outer loop
vertex 58.80100000000003 98.425 60.324999999999996
vertex 42.92600000000003 98.425 44.449999999999996
vertex 27.05100000000003 98.425 60.324999999999996
endloop
endfacet
facet normal 0.0 1.0 0.0
outer loop
vertex 0.0 98.425 9.524999999999999
vertex 85.85199999999998 98.425 0.0
vertex 0.0 98.425 0.0
endloop
endfacet
facet normal 0.0 1.0 0.0
outer loop
vertex 85.85199999999998 98.425 0.0
vertex 0.0 98.425 9.524999999999999
vertex 85.85199999999998 98.425 9.524999999999999
endloop
endfacet
facet normal 0.0 1.0 0.0
outer loop
vertex 85.85199999999998 98.425 9.524999999999999
vertex 0.0 98.425 9.524999999999999
vertex 12.7 98.425 22.224999999999998
endloop
endfacet
facet normal 0.0 1.0 0.0
outer loop
vertex 85.85199999999998 98.425 9.524999999999999
vertex 12.7 98.425 22.224999999999998
vertex 73.15199999999997 98.425 22.224999999999998
endloop
endfacet
facet normal 0.0 1.0 0.0
outer loop
vertex 73.15199999999997 98.425 22.224999999999998
vertex 12.7 98.425 22.224999999999998
vertex 27.05100000000003 98.425 22.224999999999998
endloop
endfacet
facet normal 0.0 1.0 0.0
outer loop
vertex 73.15199999999997 98.425 22.224999999999998
vertex 27.05100000000003 98.425 22.224999999999998
vertex 58.80100000000003 98.425 22.224999999999998
endloop
endfacet
facet normal -0.9659258262890695 0.0 -0.25881904510251663
outer loop
vertex 45.992814498467816 98.425 42.0967504682005
vertex 46.10100000000003 95.25000000000027 41.275
vertex 45.992814498467816 95.25000000000027 42.0967504682005
endloop
endfacet
facet normal -1.0 0.0 0.0
outer loop
vertex 46.10100000000003 95.25000000000027 41.275
vertex 45.992814498467816 98.425 42.0967504682005
vertex 46.10100000000003 98.425 41.275
endloop
endfacet
facet normal -1.0 0.0 0.0
outer loop
vertex 46.10100000000003 98.425 41.275
vertex 45.992814498467816 95.25000000000027 40.4532495317995
vertex 46.10100000000003 95.25000000000027 41.275
endloop
endfacet
facet normal -0.9659258262890695 0.0 0.25881904510251663
outer loop
vertex 45.992814498467816 95.25000000000027 40.4532495317995
vertex 46.10100000000003 98.425 41.275
vertex 45.992814498467816 98.425 40.4532495317995
endloop
endfacet
facet normal -0.9659258262890695 0.0 0.25881904510251663
outer loop
vertex 45.992814498467816 98.425 40.4532495317995
vertex 45.67563065701563 95.25000000000027 39.6875
vertex 45.992814498467816 95.25000000000027 40.4532495317995
endloop
endfacet
facet normal -0.8660254037844396 0.0 0.49999999999999867
outer loop
vertex 45.67563065701563 95.25000000000027 39.6875
vertex 45.992814498467816 98.425 40.4532495317995
vertex 45.67563065701563 98.425 39.6875
endloop
endfacet
facet normal -0.8660254037844396 0.0 0.49999999999999867
outer loop
vertex 45.67563065701563 98.425 39.6875
vertex 45.17106403026732 95.25000000000027 39.02993596973271
vertex 45.67563065701563 95.25000000000027 39.6875
endloop
endfacet
facet normal -0.7071067811865476 0.0 0.7071067811865476
outer loop
vertex 45.17106403026732 95.25000000000027 39.02993596973271
vertex 45.67563065701563 98.425 39.6875
vertex 45.17106403026732 98.425 39.02993596973271
endloop
endfacet
facet normal -0.7071067811865476 0.0 0.7071067811865476
outer loop
vertex 45.17106403026732 95.25000000000027 39.02993596973271
vertex 44.51350000000003 98.425 38.5253693429844
vertex 44.51350000000003 95.25000000000027 38.5253693429844
endloop
endfacet
facet normal -0.49999999999999867 0.0 0.8660254037844396
outer loop
vertex 44.51350000000003 98.425 38.5253693429844
vertex 45.17106403026732 95.25000000000027 39.02993596973271
vertex 45.17106403026732 98.425 39.02993596973271
endloop
endfacet
facet normal -0.49999999999999867 0.0 0.8660254037844396
outer loop
vertex 44.51350000000003 95.25000000000027 38.5253693429844
vertex 43.74775046820053 98.425 38.20818550153221
vertex 43.74775046820053 95.25000000000027 38.20818550153221
endloop
endfacet
facet normal -0.25881904510251663 0.0 0.9659258262890695
outer loop
vertex 43.74775046820053 98.425 38.20818550153221
vertex 44.51350000000003 95.25000000000027 38.5253693429844
vertex 44.51350000000003 98.425 38.5253693429844
endloop
endfacet
facet normal -0.25881904510251663 0.0 0.9659258262890695
outer loop
vertex 43.74775046820053 95.25000000000027 38.20818550153221
vertex 42.92600000000003 98.425 38.099999999999994
vertex 42.92600000000003 95.25000000000027 38.099999999999994
endloop
endfacet
facet normal 0.0 0.0 1.0
outer loop
vertex 42.92600000000003 98.425 38.099999999999994
vertex 43.74775046820053 95.25000000000027 38.20818550153221
vertex 43.74775046820053 98.425 38.20818550153221
endloop
endfacet
facet normal 0.0 0.0 1.0
outer loop
vertex 42.92600000000003 95.25000000000027 38.099999999999994
vertex 42.10424953179953 98.425 38.20818550153221
vertex 42.10424953179953 95.25000000000027 38.20818550153221
endloop
endfacet
facet normal 0.25881904510251663 0.0 0.9659258262890695
outer loop
vertex 42.10424953179953 98.425 38.20818550153221
vertex 42.92600000000003 95.25000000000027 38.099999999999994
vertex 42.92600000000003 98.425 38.099999999999994
endloop
endfacet
facet normal 0.25881904510251663 0.0 0.9659258262890695
outer loop
vertex 42.10424953179953 95.25000000000027 38.20818550153221
vertex 41.33850000000003 98.425 38.5253693429844
vertex 41.33850000000003 95.25000000000027 38.5253693429844
endloop
endfacet
facet normal 0.49999999999999867 0.0 0.8660254037844396
outer loop
vertex 41.33850000000003 98.425 38.5253693429844
vertex 42.10424953179953 95.25000000000027 38.20818550153221
vertex 42.10424953179953 98.425 38.20818550153221
endloop
endfacet
facet normal 0.49999999999999867 0.0 0.8660254037844396
outer loop
vertex 41.33850000000003 95.25000000000027 38.5253693429844
vertex 40.680935969732744 98.425 39.02993596973271
vertex 40.680935969732744 95.25000000000027 39.02993596973271
endloop
endfacet
facet normal 0.7071067811865476 0.0 0.7071067811865476
outer loop
vertex 40.680935969732744 98.425 39.02993596973271
vertex 41.33850000000003 95.25000000000027 38.5253693429844
vertex 41.33850000000003 98.425 38.5253693429844
endloop
endfacet
facet normal 0.7071067811865476 0.0 0.7071067811865476
outer loop
vertex 40.680935969732744 98.425 39.02993596973271
vertex 40.17636934298443 95.25000000000027 39.6875
vertex 40.680935969732744 95.25000000000027 39.02993596973271
endloop
endfacet
facet normal 0.8660254037844396 0.0 0.49999999999999867
outer loop
vertex 40.17636934298443 95.25000000000027 39.6875
vertex 40.680935969732744 98.425 39.02993596973271
vertex 40.17636934298443 98.425 39.6875
endloop
endfacet
facet normal 0.8660254037844396 0.0 0.49999999999999867
outer loop
vertex 40.17636934298443 98.425 39.6875
vertex 39.859185501532245 95.25000000000027 40.4532495317995
vertex 40.17636934298443 95.25000000000027 39.6875
endloop
endfacet
facet normal 0.9659258262890695 0.0 0.25881904510251663
outer loop
vertex 39.859185501532245 95.25000000000027 40.4532495317995
vertex 40.17636934298443 98.425 39.6875
vertex 39.859185501532245 98.425 40.4532495317995
endloop
endfacet
facet normal 0.9659258262890695 0.0 0.25881904510251663
outer loop
vertex 39.859185501532245 98.425 40.4532495317995
vertex 39.75100000000003 95.25000000000027 41.275
vertex 39.859185501532245 95.25000000000027 40.4532495317995
endloop
endfacet
facet normal 1.0 0.0 0.0
outer loop
vertex 39.75100000000003 95.25000000000027 41.275
vertex 39.859185501532245 98.425 40.4532495317995
vertex 39.75100000000003 98.425 41.275
endloop
endfacet
facet normal 1.0 0.0 0.0
outer loop
vertex 39.75100000000003 98.425 41.275
vertex 39.859185501532245 95.25000000000027 42.0967504682005
vertex 39.75100000000003 95.25000000000027 41.275
endloop
endfacet
facet normal 0.9659258262890695 0.0 -0.25881904510251663
outer loop
vertex 39.859185501532245 95.25000000000027 42.0967504682005
vertex 39.75100000000003 98.425 41.275
vertex 39.859185501532245 98.425 42.0967504682005
endloop
endfacet
facet normal 0.9659258262890695 0.0 -0.25881904510251663
outer loop
vertex 39.859185501532245 98.425 42.0967504682005
vertex 40.17636934298443 95.25000000000027 42.8625
vertex 39.859185501532245 95.25000000000027 42.0967504682005
endloop
endfacet
facet normal 0.8660254037844396 0.0 -0.49999999999999867
outer loop
vertex 40.17636934298443 95.25000000000027 42.8625
vertex 39.859185501532245 98.425 42.0967504682005
vertex 40.17636934298443 98.425 42.8625
endloop
endfacet
facet normal 0.8660254037844396 0.0 -0.49999999999999867
outer loop
vertex 40.17636934298443 98.425 42.8625
vertex 40.680935969732744 95.25000000000027 43.52006403026728
vertex 40.17636934298443 95.25000000000027 42.8625
endloop
endfacet
facet normal 0.7071067811865476 0.0 -0.7071067811865476
outer loop
vertex 40.680935969732744 95.25000000000027 43.52006403026728
vertex 40.17636934298443 98.425 42.8625
vertex 40.680935969732744 98.425 43.52006403026728
endloop
endfacet
facet normal 0.49999999999999867 0.0 -0.8660254037844396
outer loop
vertex 41.33850000000003 98.425 44.0246306570156
vertex 40.680935969732744 95.25000000000027 43.52006403026728
vertex 40.680935969732744 98.425 43.52006403026728
endloop
endfacet
facet normal 0.7071067811865476 0.0 -0.7071067811865476
outer loop
vertex 40.680935969732744 95.25000000000027 43.52006403026728
vertex 41.33850000000003 98.425 44.0246306570156
vertex 41.33850000000003 95.25000000000027 44.0246306570156
endloop
endfacet
facet normal 0.25881904510251663 0.0 -0.9659258262890695
outer loop
vertex 42.10424953179953 98.425 44.341814498467784
vertex 41.33850000000003 95.25000000000027 44.0246306570156
vertex 41.33850000000003 98.425 44.0246306570156
endloop
endfacet
facet normal 0.49999999999999867 0.0 -0.8660254037844396
outer loop
vertex 41.33850000000003 95.25000000000027 44.0246306570156
vertex 42.10424953179953 98.425 44.341814498467784
vertex 42.10424953179953 95.25000000000027 44.341814498467784
endloop
endfacet
facet normal 0.0 0.0 -1.0
outer loop
vertex 42.92600000000003 98.425 44.449999999999996
vertex 42.10424953179953 95.25000000000027 44.341814498467784
vertex 42.10424953179953 98.425 44.341814498467784
endloop
endfacet
facet normal 0.25881904510251663 0.0 -0.9659258262890695
outer loop
vertex 42.10424953179953 95.25000000000027 44.341814498467784
vertex 42.92600000000003 98.425 44.449999999999996
vertex 42.92600000000003 95.25000000000027 44.449999999999996
endloop
endfacet
facet normal -0.25881904510251663 0.0 -0.9659258262890695
outer loop
vertex 43.74775046820053 98.425 44.341814498467784
vertex 42.92600000000003 95.25000000000027 44.449999999999996
vertex 42.92600000000003 98.425 44.449999999999996
endloop
endfacet
facet normal 0.0 0.0 -1.0
outer loop
vertex 42.92600000000003 95.25000000000027 44.449999999999996
vertex 43.74775046820053 98.425 44.341814498467784
vertex 43.74775046820053 95.25000000000027 44.341814498467784
endloop
endfacet
facet normal -0.49999999999999867 0.0 -0.8660254037844396
outer loop
vertex 44.51350000000003 98.425 44.0246306570156
vertex 43.74775046820053 95.25000000000027 44.341814498467784
vertex 43.74775046820053 98.425 44.341814498467784
endloop
endfacet
facet normal -0.25881904510251663 0.0 -0.9659258262890695
outer loop
vertex 43.74775046820053 95.25000000000027 44.341814498467784
vertex 44.51350000000003 98.425 44.0246306570156
vertex 44.51350000000003 95.25000000000027 44.0246306570156
endloop
endfacet
facet normal -0.7071067811865476 0.0 -0.7071067811865476
outer loop
vertex 45.17106403026732 98.425 43.52006403026728
vertex 44.51350000000003 95.25000000000027 44.0246306570156
vertex 44.51350000000003 98.425 44.0246306570156
endloop
endfacet
facet normal -0.49999999999999867 0.0 -0.8660254037844396
outer loop
vertex 44.51350000000003 95.25000000000027 44.0246306570156
vertex 45.17106403026732 98.425 43.52006403026728
vertex 45.17106403026732 95.25000000000027 43.52006403026728
endloop
endfacet
facet normal -0.7071067811865476 0.0 -0.7071067811865476
outer loop
vertex 45.17106403026732 98.425 43.52006403026728
vertex 45.67563065701563 95.25000000000027 42.8625
vertex 45.17106403026732 95.25000000000027 43.52006403026728
endloop
endfacet
facet normal -0.8660254037844396 0.0 -0.49999999999999867
outer loop
vertex 45.67563065701563 95.25000000000027 42.8625
vertex 45.17106403026732 98.425 43.52006403026728
vertex 45.67563065701563 98.425 42.8625
endloop
endfacet
facet normal -0.8660254037844396 0.0 -0.49999999999999867
outer loop
vertex 45.67563065701563 98.425 42.8625
vertex 45.992814498467816 95.25000000000027 42.0967504682005
vertex 45.67563065701563 95.25000000000027 42.8625
endloop
endfacet
facet normal -0.9659258262890695 0.0 -0.25881904510251663
outer loop
vertex 45.992814498467816 95.25000000000027 42.0967504682005
vertex 45.67563065701563 98.425 42.8625
vertex 45.992814498467816 98.425 42.0967504682005
endloop
endfacet
facet normal 0.0 0.0 -1.0
outer loop
vertex 42.92600000000003 95.25 57.15
vertex 30.22600000000003 20.365128060534577 57.15
vertex 30.22600000000003 95.25 57.15
endloop
endfacet
facet normal 0.0 0.0 -1.0
outer loop
vertex 30.22600000000003 20.365128060534577 57.15
vertex 42.92600000000003 95.25 57.15
vertex 36.79237100306446 52.443500936401 57.15
endloop
endfacet
facet normal 0.0 0.0 -1.0
outer loop
vertex 30.22600000000003 20.365128060534577 57.15
vertex 36.79237100306446 52.443500936401 57.15
vertex 36.57600000000003 50.8 57.15
endloop
endfacet
facet normal 0.0 0.0 -1.0
outer loop
vertex 36.79237100306446 52.443500936401 57.15
vertex 42.92600000000003 95.25 57.15
vertex 37.42673868596888 53.974999999999994 57.15
endloop
endfacet
facet normal 0.0 0.0 -1.0
outer loop
vertex 37.42673868596888 53.974999999999994 57.15
vertex 42.92600000000003 95.25 57.15
vertex 38.435871939465414 55.29012806053456 57.15
endloop
endfacet
facet normal 0.0 0.0 -1.0
outer loop
vertex 38.435871939465414 55.29012806053456 57.15
vertex 42.92600000000003 95.25 57.15
vertex 39.75100000000003 56.29926131403118 57.15
endloop
endfacet
facet normal 0.0 0.0 -1.0
outer loop
vertex 39.75100000000003 56.29926131403118 57.15
vertex 42.92600000000003 95.25 57.15
vertex 41.28249906359898 56.93362899693559 57.15
endloop
endfacet
facet normal 0.0 0.0 -1.0
outer loop
vertex 41.28249906359898 56.93362899693559 57.15
vertex 42.92600000000003 95.25 57.15
vertex 42.92600000000003 57.15 57.15
endloop
endfacet
facet normal 0.0 0.0 -1.0
outer loop
vertex 42.92600000000003 57.15 57.15
vertex 42.92600000000003 95.25 57.15
vertex 55.626000000000026 95.25 57.15
endloop
endfacet
facet normal 0.0 0.0 -1.0
outer loop
vertex 42.92600000000003 57.15 57.15
vertex 55.626000000000026 95.25 57.15
vertex 44.56950093640108 56.93362899693559 57.15
endloop
endfacet
facet normal 0.0 0.0 -1.0
outer loop
vertex 44.56950093640108 56.93362899693559 57.15
vertex 55.626000000000026 95.25 57.15
vertex 46.10100000000003 56.29926131403118 57.15
endloop
endfacet
facet normal 0.0 0.0 -1.0
outer loop
vertex 46.10100000000003 56.29926131403118 57.15
vertex 55.626000000000026 95.25 57.15
vertex 47.416128060534646 55.29012806053456 57.15
endloop
endfacet
facet normal 0.0 0.0 -1.0
outer loop
vertex 47.416128060534646 55.29012806053456 57.15
vertex 55.626000000000026 95.25 57.15
vertex 48.42526131403118 53.974999999999994 57.15
endloop
endfacet
facet normal 0.0 0.0 -1.0
outer loop
vertex 48.42526131403118 53.974999999999994 57.15
vertex 55.626000000000026 95.25 57.15
vertex 49.0596289969356 52.443500936401 57.15
endloop
endfacet
facet normal 0.0 0.0 -1.0
outer loop
vertex 49.0596289969356 52.443500936401 57.15
vertex 55.626000000000026 95.25 57.15
vertex 49.27600000000003 50.8 57.15
endloop
endfacet
facet normal 0.0 0.0 -1.0
outer loop
vertex 30.22600000000003 20.365128060534577 57.15
vertex 37.42673868596888 47.625 57.15
vertex 55.626000000000026 20.365128060534577 57.15
endloop
endfacet
facet normal 0.0 0.0 -1.0
outer loop
vertex 37.42673868596888 47.625 57.15
vertex 30.22600000000003 20.365128060534577 57.15
vertex 36.79237100306446 49.15649906359899 57.15
endloop
endfacet
facet normal 0.0 0.0 -1.0
outer loop
vertex 36.79237100306446 49.15649906359899 57.15
vertex 30.22600000000003 20.365128060534577 57.15
vertex 36.57600000000003 50.8 57.15
endloop
endfacet
facet normal 0.0 0.0 -1.0
outer loop
vertex 55.626000000000026 20.365128060534577 57.15
vertex 37.42673868596888 47.625 57.15
vertex 38.435871939465414 46.30987193946543 57.15
endloop
endfacet
facet normal 0.0 0.0 -1.0
outer loop
vertex 55.626000000000026 20.365128060534577 57.15
vertex 38.435871939465414 46.30987193946543 57.15
vertex 39.75100000000003 45.30073868596882 57.15
endloop
endfacet
facet normal 0.0 0.0 -1.0
outer loop
vertex 55.626000000000026 20.365128060534577 57.15
vertex 39.75100000000003 45.30073868596882 57.15
vertex 41.28249906359898 44.666371003064405 57.15
endloop
endfacet
facet normal 0.0 0.0 -1.0
outer loop
vertex 55.626000000000026 20.365128060534577 57.15
vertex 41.28249906359898 44.666371003064405 57.15
vertex 42.92600000000003 44.449999999999996 57.15
endloop
endfacet
facet normal 0.0 0.0 -1.0
outer loop
vertex 55.626000000000026 20.365128060534577 57.15
vertex 42.92600000000003 44.449999999999996 57.15
vertex 44.56950093640108 44.666371003064405 57.15
endloop
endfacet
facet normal 0.0 0.0 -1.0
outer loop
vertex 55.626000000000026 20.365128060534577 57.15
vertex 44.56950093640108 44.666371003064405 57.15
vertex 46.10100000000003 45.30073868596882 57.15
endloop
endfacet
facet normal 0.0 0.0 -1.0
outer loop
vertex 55.626000000000026 20.365128060534577 57.15
vertex 46.10100000000003 45.30073868596882 57.15
vertex 47.416128060534646 46.30987193946543 57.15
endloop
endfacet
facet normal 0.0 0.0 -1.0
outer loop
vertex 55.626000000000026 20.365128060534577 57.15
vertex 47.416128060534646 46.30987193946543 57.15
vertex 48.42526131403118 47.625 57.15
endloop
endfacet
facet normal 0.0 0.0 -1.0
outer loop
vertex 55.626000000000026 20.365128060534577 57.15
vertex 48.42526131403118 47.625 57.15
vertex 49.0596289969356 49.15649906359899 57.15
endloop
endfacet
facet normal 0.0 0.0 -1.0
outer loop
vertex 55.626000000000026 20.365128060534577 57.15
vertex 49.0596289969356 49.15649906359899 57.15
vertex 49.27600000000003 50.8 57.15
endloop
endfacet
facet normal 0.0 0.0 -1.0
outer loop
vertex 55.626000000000026 20.365128060534577 57.15
vertex 49.27600000000003 50.8 57.15
vertex 55.626000000000026 95.25 57.15
endloop
endfacet
endsolid battery_cover
